<svg width="104" height="104" viewBox="0 0 104 104" fill="none" xmlns="http://www.w3.org/2000/svg">
<g clip-path="url(#clip0_125_2359)">
<path d="M72.1706 16.7394C70.3017 17.3157 68.3194 16.2677 67.7432 14.3988C67.1669 12.5298 68.2149 10.5475 70.0838 9.97127C71.9528 9.39501 73.935 10.443 74.5113 12.3119C75.0876 14.1809 74.0396 16.1632 72.1706 16.7394Z" fill="#FFBF76"/>
<path d="M70.8755 9.82559C72.4829 9.70964 74.0163 10.7061 74.5114 12.3119C75.0066 13.9178 74.3005 15.6045 72.9071 16.414C71.7667 15.8675 70.847 14.8695 70.445 13.5657C70.043 12.262 70.2411 10.9194 70.8755 9.82559Z" fill="#FFD9BE"/>
<path d="M93.1106 49.673C85.722 47.4493 61.2672 40.041 54.336 37.3305C53.9116 37.1639 53.4521 37.1072 52.9999 37.1655C52.5478 37.2238 52.1177 37.3953 51.7495 37.6641C48.1598 40.2842 37.712 47.8802 32.8978 51.0618C32.2841 51.4675 32.1759 52.3214 32.6652 52.871L36.724 57.429L29.0508 55.0686C28.8064 54.9931 28.5479 54.975 28.2954 55.0156C28.0428 55.0562 27.8031 55.1546 27.5947 55.3029C25.5513 56.7595 19.2245 61.2372 14.3749 64.3262C13.4217 64.9333 13.4658 66.3357 14.4573 66.8778C19.1987 69.4706 30.2155 75.4807 34.6764 77.7887C34.9275 77.9187 35.2163 77.9564 35.4924 77.895L40.2331 76.8469L39.2553 78.5007C38.902 79.0984 39.1223 79.8695 39.739 80.1883C42.4947 81.6134 49.5622 85.2687 52.9383 87.021C53.4515 87.2875 54.0347 87.3886 54.6077 87.3103C55.1806 87.232 55.7153 86.9782 56.1381 86.5837L72.7645 71.0945C72.9678 70.9051 73.0996 70.6514 73.1377 70.3762C73.1759 70.101 73.1181 69.8211 72.9739 69.5835L71.6997 67.4827L77.0392 68.4287C77.248 68.4662 77.4631 68.4479 77.6625 68.3755C77.862 68.3031 78.0388 68.1792 78.1749 68.0164C79.8056 66.0661 85.7868 59.0709 93.6009 51.8138C94.3181 51.1474 94.048 49.9551 93.1106 49.673Z" fill="url(#paint0_linear_125_2359)"/>
<path d="M25.7617 65.649C24.8211 65.1896 24.6996 63.9006 25.5388 63.2748C27.7176 61.6494 30.8583 59.2656 34.2578 56.6705L36.7238 57.4291L35.3236 55.8565C42.2698 50.5483 49.9774 44.6073 52.7152 42.4954C53.0298 42.252 53.401 42.0922 53.7941 42.0311C54.1872 41.9701 54.5893 42.0097 54.963 42.1462C60.7686 44.2642 77.3602 50.1052 82.9065 52.0554C83.6644 52.322 83.8346 53.3181 83.2043 53.8164C79.5698 56.69 74.024 62.249 74.024 62.249C69.0206 67.3387 58.7754 75.7627 55.3105 78.5813C54.9611 78.8661 54.5371 79.0445 54.0892 79.0952C53.6412 79.1459 53.1881 79.0668 52.7839 78.8673C46.7861 75.919 31.3613 68.3837 25.7617 65.649Z" fill="#FFE7D0"/>
<path d="M47.5229 69.5618L48.8297 67.3836C48.8751 67.3078 48.9383 67.2442 49.0137 67.1982C49.0891 67.1521 49.1745 67.125 49.2626 67.1191L52.4239 66.9084L53.444 64.7833C53.4851 64.6979 53.5476 64.6246 53.6255 64.5706C53.7033 64.5165 53.7939 64.4836 53.8883 64.475L56.3867 64.2496C56.7973 64.2124 57.0999 64.6253 56.941 65.0056L56.2526 66.6533L59.5975 66.4305C60.0295 66.4016 60.3222 66.8619 60.1131 67.2412L58.9175 69.4084C58.8732 69.4887 58.8095 69.5565 58.7321 69.6057C58.6547 69.655 58.5662 69.6839 58.4747 69.6899L54.8833 69.9306L53.7923 72.542C53.7509 72.6412 53.6811 72.726 53.5918 72.7858C53.5025 72.8456 53.3975 72.8778 53.29 72.8782L50.423 72.8933C50.0187 72.8953 49.7519 72.4736 49.9269 72.109L50.8427 70.2013L48.0288 70.3897C47.5879 70.4189 47.2955 69.9406 47.5229 69.5618Z" fill="#DAA520"/>
<path d="M55.4505 48.4882C54.6426 49.0017 53.6086 48.8215 53.141 48.0858C52.6734 47.35 52.9492 46.3373 53.7571 45.8239C54.565 45.3104 55.599 45.4906 56.0666 46.2263C56.5342 46.9621 56.2584 47.9748 55.4505 48.4882Z" fill="#DAA520"/>
<path fill-rule="evenodd" clip-rule="evenodd" d="M45.6716 61.553L47.2631 61.0818C47.5822 62.1347 48.0144 63.15 48.5521 64.1099L47.097 64.9085C46.5022 63.8447 46.0243 62.7197 45.6716 61.553ZM45.6597 54.9748L47.2329 55.504C46.9114 56.4905 46.7546 57.5318 46.8185 58.5852L45.1606 58.6655C45.0864 57.4242 45.2695 56.1622 45.6597 54.9748ZM49.5544 49.6995L50.5636 51.0173C49.7176 51.6725 48.95 52.4419 48.3511 53.3102L46.9912 52.3583C47.6993 51.3359 48.5804 50.4536 49.5544 49.6995Z" fill="#DAA520"/>
<path d="M72.3863 17.9889C71.5196 17.4234 69.9244 16.7546 67.8169 17.479C67.3748 17.6309 67.0418 18.0028 66.9123 18.4519L63.3307 30.8804L70.669 32.6576C70.669 32.6576 72.3778 25.0187 73.0309 19.387C73.0953 18.8353 72.8516 18.2926 72.3863 17.9889Z" fill="#B8860B"/>
<path d="M73.0821 19.3187C72.1598 18.6087 70.0755 17.3831 67.3417 18.0986C66.9866 18.1915 66.6677 17.8642 66.7883 17.5175L66.8967 17.2061C67.18 16.3922 67.9209 15.8188 68.7814 15.7717C69.7721 15.7173 71.1707 15.8365 72.6838 16.5739C73.6131 17.0267 74.0801 18.0895 73.7976 19.0841L73.7965 19.0879C73.7088 19.3974 73.3372 19.5151 73.0821 19.3187Z" fill="#FFD9BE"/>
<path d="M70.0172 32.5L63.3308 30.8808L66.9123 18.4523C67.0418 18.003 67.3749 17.6313 67.817 17.4794C68.251 17.3301 68.6574 17.2518 69.0461 17.2078C67.5266 20.6304 65.1362 27.9739 70.0172 32.5Z" fill="#DAA520"/>
<path d="M69.592 17.9131C68.9077 17.8472 68.1543 17.8858 67.3418 18.0985C66.9867 18.1913 66.6678 17.864 66.7885 17.5174L66.8968 17.2059C67.1801 16.392 67.9211 15.8187 68.7815 15.7715C69.0944 15.7555 69.408 15.7584 69.7206 15.7802C69.4606 16.2915 69.2739 17.0318 69.592 17.9131Z" fill="#FFBF76"/>
<path d="M72.0139 34.7652C72.0139 34.7652 69.277 46.6878 67.3701 51.1705L58.834 53.8025C58.834 53.8025 60.2853 37.4295 61.7075 32.2306L72.0139 34.7652Z" fill="url(#paint1_linear_125_2359)"/>
<path d="M58.8341 53.8024C58.8341 53.8024 60.2854 37.4295 61.7076 32.2305L72.0139 34.7652C72.0139 34.7652 71.9643 34.9806 71.8762 35.3558C69.7802 36.7897 65.9826 39.4811 65.9826 39.4811L63.135 52.4764L58.8341 53.8024Z" fill="url(#paint2_linear_125_2359)"/>
<path d="M79.2534 33.6948L56.0031 28.7759C55.3356 28.6346 54.6297 28.772 54.0905 29.19C53.5563 29.6041 52.9939 30.245 52.8855 31.1508C52.8855 31.1508 52.8814 31.179 52.8767 31.2306C52.6646 33.5974 55.5509 35.0119 57.2736 33.3751C57.4364 33.2204 57.5855 33.0476 57.7084 32.8553C57.9398 32.4937 58.367 32.3106 58.7848 32.4087L60.5302 32.8184C60.729 32.865 60.9089 32.9713 61.0456 33.1229L64.9013 37.397C65.098 37.615 65.3556 37.7691 65.6407 37.8394C65.9258 37.9097 66.2254 37.893 66.501 37.7914L72.7608 35.4821C72.9281 35.4203 73.1089 35.4043 73.2845 35.4358L75.188 35.7765C75.5978 35.8498 75.9206 36.1656 75.9954 36.5749C76.0668 36.9661 76.2121 37.4935 76.5078 38.0579C77.0659 39.1236 78.3796 39.5483 79.4555 39.0098C79.4778 38.9986 79.5 38.9874 79.5222 38.976C81.277 38.0717 81.7904 35.7054 80.3968 34.3074C80.3275 34.2378 80.2542 34.171 80.1764 34.1076C79.9122 33.8921 79.5868 33.7654 79.2534 33.6948Z" fill="#FFD9BE"/>
<path d="M64.9015 37.3969L61.0456 33.1229C60.9089 32.9712 60.729 32.8649 60.5302 32.8183L58.7849 32.4089C58.367 32.3107 57.9397 32.4939 57.7085 32.8556C57.5856 33.0477 57.4365 33.2206 57.2737 33.3753C55.5509 35.012 52.6647 33.5975 52.8768 31.2308C52.8814 31.1793 52.8856 31.1509 52.8856 31.1509C52.9939 30.2452 53.5565 29.6042 54.0906 29.1901C54.6297 28.7721 55.3357 28.6347 56.0032 28.776L67.0209 31.1071C66.4921 32.3157 65.6947 34.7864 66.1754 37.8667C65.7055 37.9255 65.2276 37.7586 64.9015 37.3969Z" fill="#FFBF76"/>
<path d="M69.7906 50.5622C69.975 50.4878 69.8967 50.2103 69.701 50.245C68.3064 50.4923 65.9828 50.9663 63.2909 51.7646C63.2909 51.7646 59.2689 52.8736 56.1161 54.4131C55.9413 54.4986 56.035 54.7645 56.2253 54.7242C57.9464 54.3594 61.2216 53.6361 63.6091 52.932L63.6166 52.9297C63.7063 52.8968 67.114 51.6459 69.7906 50.5622Z" fill="url(#paint3_linear_125_2359)"/>
</g>
<defs>
<linearGradient id="paint0_linear_125_2359" x1="54.2488" y1="39.1869" x2="53.0122" y2="97.8499" gradientUnits="userSpaceOnUse">
<stop offset="0.01" stop-color="#DAA520"/>
<stop offset="1" stop-color="#B8860B"/>
</linearGradient>
<linearGradient id="paint1_linear_125_2359" x1="63.1345" y1="48.4667" x2="67.2525" y2="31.9939" gradientUnits="userSpaceOnUse">
<stop stop-color="white"/>
<stop offset="1" stop-color="#C7DAFF"/>
</linearGradient>
<linearGradient id="paint2_linear_125_2359" x1="73.3178" y1="38.9935" x2="55.9219" y2="44.3572" gradientUnits="userSpaceOnUse">
<stop stop-color="#819FEA"/>
<stop offset="1" stop-color="#A7C1FC"/>
</linearGradient>
<linearGradient id="paint3_linear_125_2359" x1="69.8867" y1="50.3571" x2="56.0371" y2="54.6273" gradientUnits="userSpaceOnUse">
<stop offset="0.01" stop-color="#B8860B"/>
<stop offset="1" stop-color="#D2691E"/>
</linearGradient>
<clipPath id="clip0_125_2359">
<rect width="83" height="83" fill="white" transform="matrix(-0.955607 0.294643 0.294643 0.955607 79.3154 0)"/>
</clipPath>
</defs>
</svg>
