<svg width="70" height="70" viewBox="0 0 70 70" fill="none" xmlns="http://www.w3.org/2000/svg">
<path d="M35.9995 62.0968C35.9995 62.0968 36.0915 62.1035 36.2515 62.1072C37.9174 62.1462 39.5504 61.6389 40.9208 60.6912L43.1444 59.1538C44.051 58.5269 45.3373 58.8314 45.7939 59.8345C45.8006 59.849 45.8072 59.8638 45.8137 59.8787L40.7248 63.231L37.5507 63.7183C37.5506 63.7183 36.106 62.9249 35.9995 62.0968Z" fill="#A06260"/>
<path d="M41.9936 65.0143C41.9936 65.0143 45.0346 62.9429 47.4304 61.6635C48.6752 60.9986 48.1366 59.0712 46.7296 59.1837C46.7088 59.1855 46.6876 59.1872 46.6664 59.1894C46.4886 59.2071 46.319 59.2743 46.166 59.3666L41.8158 61.9893C41.2867 62.3081 40.726 62.5683 40.138 62.7575C39.2364 63.0475 37.8962 63.354 36.4976 63.2307C36.4974 63.2307 39.8098 64.9051 41.9936 65.0143Z" fill="#BA8280"/>
<path d="M32.1251 55.1222C31.5762 55.2039 31.0161 55.0282 30.6241 54.6352C29.493 53.5008 26.7325 51.1877 22.7453 50.8299C22.7453 50.8299 20.8368 50.773 20.0871 49.7789C20.0871 49.7789 15.7205 43.712 17.4068 37.1963C17.4973 36.8467 17.9341 36.7232 18.1909 36.977C18.4653 37.248 18.8194 37.5542 19.1943 37.7635C19.6058 37.9933 20.1085 37.9728 20.5031 37.7151C20.9945 37.3941 21.7777 36.8393 22.4584 36.1642C23.4877 35.1433 23.9474 33.6383 23.5062 32.2574C23.2323 31.3998 22.6174 30.5408 21.3043 30.1615C21.011 30.0769 20.843 29.7806 20.9369 29.4903C21.2777 28.437 22.1235 26.1147 23.3538 24.6831C23.546 24.4594 23.8181 24.3223 24.113 24.3115C25.4035 24.2647 29.4091 23.8589 31.7198 20.7016C32.0483 20.2526 32.3111 19.7529 32.4526 19.2148C32.7435 18.1075 32.7216 16.3438 29.9703 15.7276C29.9703 15.7276 26.6871 14.9829 28.3345 11.3653C28.3345 11.3653 29.1638 9.29184 31.1842 8.03813C31.501 7.84153 31.8959 8.15229 31.7743 8.50475C31.5121 9.26586 31.2255 10.3465 31.3225 11.2322C31.4007 11.9468 31.9371 12.5255 32.6389 12.6811C34.0489 12.9936 38.025 14.2925 37.9258 18.9927C37.9171 19.4081 37.6432 19.7668 37.2562 19.9175C36.172 20.3395 34.17 21.7778 35.4991 26.5319C35.4991 26.5319 36.3336 29.3024 38.7035 29.4025C40.2164 29.4663 40.4149 28.2329 40.4215 27.6262C40.4234 27.4586 40.5756 27.3354 40.7379 27.3774C42.1075 27.7319 47.2606 29.4115 47.5831 34.6764C47.6133 35.1682 47.4389 35.6557 47.1086 36.0213C45.9098 37.3483 43.2435 40.9599 46.0983 44.3095C46.511 44.7935 46.5948 45.4761 46.3459 46.0613C45.4167 48.2473 42.5851 53.0824 35.3152 54.6469L32.1251 55.1222Z" fill="url(#paint0_linear_125_1895)"/>
<path d="M41.5044 24.1923C41.5044 24.9299 41.0634 25.5279 40.326 25.5279C39.5882 25.5279 38.9902 24.9299 38.9902 24.1923C38.9902 23.4547 39.5881 22.8567 40.326 22.8567C41.0636 22.8567 41.5044 23.4547 41.5044 24.1923Z" fill="#FF697B"/>
<path d="M35.2167 1.70719C34.972 1.45754 34.5793 1.40928 34.2967 1.61518C33.9337 1.87973 33.497 2.48033 33.437 3.84301C33.437 3.84301 33.4748 4.42174 33.3411 4.9775C33.2613 5.30809 33.5632 5.59848 33.8889 5.50018C33.9363 5.48582 33.9849 5.4701 34.0341 5.45287C35.239 5.03328 35.963 3.73432 35.6434 2.49906C35.5686 2.21045 35.4367 1.93182 35.2167 1.70719Z" fill="#FF94A6"/>
<path d="M31.2929 29.8949C30.816 30.5499 30.264 31.413 29.9782 32.2277C29.9349 32.3513 29.9226 32.4837 29.9425 32.6132C29.9624 32.7426 30.0138 32.8652 30.0922 32.9701C30.5714 33.6105 31.3218 35.2941 28.1804 37.3161C28.1804 37.3161 25.2215 38.8418 25.1753 41.9394C25.1753 41.9394 25.2259 47.5894 30.6125 48.9231C31.4387 49.1278 32.2951 49.1755 33.145 49.1312C33.9412 49.0897 35.0136 48.98 35.9415 48.6988C36.3415 48.5775 36.6848 48.3236 36.9431 47.995C37.3945 47.4207 38.2338 46.4369 39.156 45.7768C39.5928 45.464 39.9153 45.022 40.041 44.4995C40.3321 43.288 40.5452 41.0526 39.0054 38.9753C38.8679 38.79 38.5843 38.7909 38.4653 38.9887C38.1734 39.4731 37.5604 40.1828 36.5184 40.0506C35.5449 39.927 34.7333 38.9346 34.7276 37.9532C34.7237 37.2975 34.9571 36.6429 35.8622 36.5337C36.1472 36.4994 36.3086 36.1845 36.1787 35.9284C35.8512 35.2837 35.0956 34.2702 33.4315 33.6563C32.6092 33.3529 31.9576 32.6827 31.7887 31.8229C31.6991 31.3674 31.6805 30.8015 31.8025 30.1091C31.8545 29.8126 31.4701 29.6515 31.2929 29.8949ZM30.8071 26.7819C30.8071 27.2707 30.2186 27.84 29.7298 27.84C29.241 27.84 28.8448 27.4438 28.8448 26.955C28.8448 26.4663 29.5488 25.7239 30.0376 25.7239C30.5263 25.7239 30.8071 26.2932 30.8071 26.7819Z" fill="#FBB04D"/>
<path d="M46.7618 59.1815C46.7411 59.1829 46.7095 59.1855 46.6839 59.1879C46.5153 59.2036 46.3347 59.2652 46.1817 59.3575L41.8406 61.9893C41.3115 62.3081 40.7509 62.5683 40.1628 62.7575C39.3335 63.0244 38.1313 63.301 36.8555 63.2479L37.5749 63.7177L37.576 63.7182C37.582 63.7197 39.551 64.2126 42.3376 62.5993L46.3458 60.0233C46.7611 59.7564 47.2315 59.5742 47.7232 59.5305C47.7232 59.5305 47.4054 59.1442 46.7618 59.1815Z" fill="#DDAEA9"/>
<path d="M17.6499 61.4874V67.0434C17.6499 67.6388 18.0696 68.15 18.6546 68.2605C20.3524 68.5812 23.1378 68.9259 27.5326 67.0527C27.5326 67.0527 31.5952 65.0484 36.7904 66.5485C36.7904 66.5485 40.2767 67.5867 43.3502 67.765C44.0679 67.8076 44.7734 67.5656 45.3138 67.0914C46.5477 66.0095 49.1697 63.9016 52.1375 62.6666C53.2922 62.1858 53.2515 60.5195 52.0736 60.0984C51.9751 60.0631 51.875 60.0327 51.7735 60.0072C51.5212 59.9427 51.2558 59.9507 51.0078 60.0303C50.1355 60.3133 47.6928 61.1764 45.6752 62.554C44.3701 63.4451 42.784 63.82 41.2255 63.5578C39.296 63.2329 36.746 62.5506 34.7124 61.118C33.579 60.3197 33.0734 58.8322 33.6575 57.5749C33.7682 57.3369 33.9125 57.1142 34.1 56.9266C34.1 56.9266 37.8139 53.4313 39.9042 51.4095C40.4029 50.9273 40.1714 50.0896 39.4977 49.9236C38.5746 49.6963 37.3217 49.6455 36.1775 50.4628L32.4944 53.6854C32.1209 54.0136 31.6366 54.1874 31.1397 54.1715C29.3689 54.1134 24.7467 54.5215 21.4976 59.8327C21.2643 60.2139 20.865 60.4599 20.4223 60.521C19.9394 60.5874 19.2707 60.6485 18.5598 60.6183C18.0642 60.5974 17.6499 60.9911 17.6499 61.4874Z" fill="#FFD3CD"/>
<path d="M36.3569 62.7817C37.307 62.7587 39.3516 62.5752 40.7458 61.4848L43.3387 59.783C43.7974 59.482 44.2989 59.2431 44.8337 59.1202C44.9204 59.0997 45.0077 59.0819 45.0955 59.067C44.5138 58.7352 43.7433 58.7396 43.1444 59.1537L40.9199 60.6919C39.5497 61.6395 37.9167 62.1462 36.2513 62.1072C36.0914 62.1035 35.9995 62.0968 35.9995 62.0968C36.0297 62.3342 36.1718 62.568 36.3569 62.7817Z" fill="#BA8280"/>
<path d="M36.7902 66.5485C36.7902 66.5485 40.2765 67.5869 43.3499 67.7652C44.0676 67.8078 44.7732 67.5658 45.3136 67.0916C46.5475 66.0097 49.1695 63.9018 52.1371 62.6668C53.292 62.1861 53.2513 60.5196 52.0734 60.0985C51.9749 60.0633 51.8748 60.0329 51.7733 60.0074C51.521 59.9428 51.2556 59.9508 51.0076 60.0305C50.1353 60.3135 47.6925 61.1766 45.675 62.5542C44.3699 63.4453 42.7838 63.8202 41.2253 63.5579C39.2958 63.2331 36.7457 62.5507 34.7122 61.1182C33.5788 60.3199 33.0732 58.8324 33.6573 57.5751C33.768 57.3371 33.9122 57.1144 34.0998 56.9268C34.0998 56.9268 37.8137 53.4315 39.9039 51.4097C40.1742 51.1485 40.2241 50.7851 40.1115 50.4783C39.7753 50.4528 39.4374 50.46 39.1026 50.4998C38.0941 50.6205 37.1569 51.0799 36.4112 51.7698L32.528 55.3626C32.1588 55.7041 31.6863 55.9174 31.1854 55.9621C26.3454 56.3943 23.9002 59.461 22.8241 61.4016C22.279 62.3846 21.2551 63.0022 20.131 63.0022H17.6494V67.0433C17.6494 67.6387 18.0691 68.1499 18.6542 68.2602C20.3519 68.5811 23.1373 68.9258 27.5321 67.0526C27.5324 67.0527 31.595 65.0484 36.7902 66.5485Z" fill="#DDAEA9"/>
<path d="M52.765 60.6434C52.6136 60.4048 52.3833 60.2093 52.0736 60.0987C51.9751 60.0634 51.8749 60.033 51.7735 60.0075C51.5212 59.943 51.2557 59.951 51.0077 60.0306C50.1355 60.3136 47.6927 61.1767 45.6752 62.5543C44.37 63.4454 42.784 63.8203 41.2255 63.5581C39.5502 63.276 37.4078 62.7229 35.541 61.6447C37.7395 63.6323 40.8143 64.482 42.5193 64.8166C43.2808 64.9659 44.0669 64.7805 44.698 64.3289C48.422 61.6636 51.5772 60.864 52.765 60.6434Z" fill="#FFD3CD"/>
<path d="M34.5389 46.4719C33.8963 47.0859 33.1092 47.179 32.0952 47.1176C31.0381 47.0537 29.6135 46.3269 29.2333 44.7587C29.2333 44.7587 29.0065 43.7704 29.3338 42.7854C29.5727 42.0664 30.161 41.5302 30.8575 41.2318C31.2347 41.0702 31.7594 40.7222 31.8853 40.0144C31.9281 39.7742 32.2106 39.6566 32.4206 39.7808C32.807 40.0094 33.3094 40.393 33.5498 40.939C33.5498 40.939 33.8371 41.7985 34.4774 42.325C35.0702 42.8122 35.4737 43.5063 35.4475 44.2732C35.4228 44.9923 35.215 45.8255 34.5389 46.4719Z" fill="white"/>
<path d="M30.1264 39.7348C30.3842 39.7348 30.5932 39.5258 30.5932 39.268C30.5932 39.0102 30.3842 38.8013 30.1264 38.8013C29.8686 38.8013 29.6597 39.0102 29.6597 39.268C29.6597 39.5258 29.8686 39.7348 30.1264 39.7348Z" fill="white"/>
<path d="M38.3047 35.9082C38.5954 35.9082 38.8311 35.6725 38.8311 35.3818C38.8311 35.0911 38.5954 34.8555 38.3047 34.8555C38.014 34.8555 37.7783 35.0911 37.7783 35.3818C37.7783 35.6725 38.014 35.9082 38.3047 35.9082Z" fill="#FBB04D"/>
<defs>
<linearGradient id="paint0_linear_125_1895" x1="32.303" y1="51.8112" x2="32.303" y2="-2.87189" gradientUnits="userSpaceOnUse">
<stop offset="0.015" stop-color="#E54254"/>
<stop offset="1" stop-color="#FF94A6"/>
</linearGradient>
</defs>
</svg>
