<svg width="126" height="126" viewBox="0 0 126 126" fill="none" xmlns="http://www.w3.org/2000/svg">
<path d="M46.3453 35.3438C46.3453 35.3438 51.6594 37.929 57.3169 36.0355C58.2495 35.7235 59.245 36.3023 59.4667 37.2606C60.2203 40.5164 61.5265 47.3775 60.8766 53.5702L65.3287 55.7683C65.3287 55.7683 71.4503 59.0527 76.6815 55.7683L70.3374 65.6175C70.3374 65.6175 60.8768 48.1433 42.957 45.0268L46.3453 35.3438Z" fill="#632E54"/>
<path d="M65.6037 56.9017C65.6037 56.9017 69.0559 44.7107 81.7863 43.2005L67.0059 36.4053L57.248 48.9716L65.6037 56.9017ZM81.7863 42.3519C81.7863 42.3519 85.0227 31.7785 96.135 32.2033C105.269 32.5522 110.94 37.4667 113.18 40.2456C113.384 40.4998 113.791 40.2968 113.696 39.9843C111.61 33.1114 101.482 7.86362 65.9278 10.9432L63.4464 14.5035L67.7617 34.3541L81.7863 42.3519Z" fill="#FFF4B2"/>
<path d="M60.9197 17.8949C62.8803 24.6253 65.3317 38.5636 55.9946 48.1103L58.2803 49.6816C58.2803 49.6816 61.1144 46.9047 64.0766 42.1873C65.4619 39.9811 68.1913 39.0341 70.6224 39.9698L82.2735 44.4541C82.536 44.555 82.8269 44.5536 83.0885 44.4503C83.3501 44.3469 83.5633 44.1491 83.686 43.896C83.8087 43.6429 83.8318 43.3529 83.7508 43.0836C83.6698 42.8142 83.4907 42.5851 83.2488 42.4415L70.5183 34.8931C68.9736 33.9771 67.9848 32.3613 67.8608 30.5697C67.6378 27.3469 67.0479 21.9515 65.5 17.5204C65.046 16.2212 65.3036 14.7806 66.1517 13.6965L66.1832 13.6564C66.9128 12.724 67.986 12.1385 69.1557 12.0492C76.4052 11.4957 102.728 11.7773 113.649 43.2293C113.769 43.575 114.093 43.8123 114.459 43.8123C114.978 43.8123 115.382 43.3585 115.316 42.8439C114.549 36.948 108.631 6.1683 68.6539 7.32937C66.2156 7.40024 63.9223 8.52391 62.3982 10.4289C61.5702 11.4631 61.0036 12.6816 60.7462 13.9812C60.4888 15.2807 60.5484 16.6232 60.9197 17.8949Z" fill="url(#paint0_linear_112_1637)"/>
<path d="M58.2803 49.6819C58.2803 49.6819 59.6954 48.2924 61.5684 45.8182C60.3315 45.7158 59.2869 45.4444 58.4447 45.1323C57.7146 46.1933 56.8949 47.1897 55.9946 48.1108L58.2803 49.6819Z" fill="#C6753E"/>
<path d="M43.4345 41.6821C43.4345 41.6821 67.3189 44.7534 72.5848 68.0735V82.9653H34.7104C34.7104 82.9653 36.017 56.824 43.4345 41.6821Z" fill="url(#paint1_linear_112_1637)"/>
<path d="M57.9664 72.6026L49.1063 66.2027C48.3845 65.6815 48.2962 64.6397 48.92 64.0043L52.5698 60.2863C53.2879 59.5549 53.1848 58.3572 52.3491 57.7639C49.8399 55.9819 44.7369 52.3503 39.7895 48.7866C34.8572 63.8025 33.8955 82.9651 33.8955 82.9651H58.795L57.9664 72.6026Z" fill="#C6753E"/>
<path d="M18.2246 99.1054C18.2246 99.1054 24.0615 118.702 49.3129 118.702C49.3129 118.702 72.319 118.702 76.2995 99.1054C76.2993 99.1054 51.9057 92.6752 18.2246 99.1054Z" fill="#AF6D94"/>
<path d="M70.3971 97.9375L70.3973 97.9368C70.3186 97.924 70.2298 97.9109 70.1495 97.8979C69.8886 97.8561 69.6275 97.8153 69.3662 97.7756C69.2328 97.7552 69.1017 97.735 68.9646 97.7146C68.9213 97.7082 68.8814 97.7015 68.8376 97.6951V97.6961C62.0789 96.696 51.0964 95.6875 37.4058 96.6281L38.6899 105.033C38.6899 105.033 42.9569 103.676 45.1981 102.811C45.7892 102.583 46.4497 102.654 46.9704 103.015C48.7054 104.218 52.8277 106.914 56.304 107.933C56.682 108.044 57.0797 108.02 57.4499 107.885C59.0125 107.316 63.4715 105.604 66.8725 103.407C64.6535 108.36 60.3794 114.713 52.309 118.48C58.6707 117.717 73.2099 114.312 76.2987 99.1057C76.2989 99.1057 74.1968 98.5555 70.3971 97.9375Z" fill="#632E54"/>
<path d="M12.8151 85.4294C12.8151 85.4294 12.0254 95.2017 16.4649 102.515C16.6234 102.772 16.81 103.011 17.0214 103.227C17.5824 103.808 18.7868 105.012 20.021 105.977C20.7713 106.563 21.85 106.429 22.4258 105.671C23.5327 104.213 25.4257 101.889 27.0942 100.674C27.6851 100.244 28.4822 100.252 29.0536 100.708C30.5654 101.914 33.945 104.413 37.4526 105.684C37.9406 105.862 38.4832 105.781 38.9171 105.496C40.3365 104.563 43.631 102.362 45.706 100.683C46.2492 100.244 47.0118 100.217 47.5926 100.605C49.3221 101.761 52.9835 104.069 55.9465 104.997C56.2023 105.078 56.4738 105.097 56.7384 105.052C57.003 105.008 57.2532 104.901 57.4681 104.74C58.9395 103.642 62.5032 100.923 64.4722 98.9109C65.0298 98.3414 65.9241 98.2836 66.5603 98.7639C68.231 100.026 71.3478 102.433 73.7474 104.593C74.3976 105.178 75.3763 105.184 76.0209 104.593C77.0259 103.673 78.4437 102.354 79.2297 101.532C79.5136 101.236 79.7476 100.896 79.9227 100.525C80.9228 98.417 84.4572 90.2681 83.1374 82.8776V78.7949L44.353 81.3467L17.3058 83.0819L12.8151 85.4294Z" fill="#AF6D94"/>
<path d="M83.1374 82.8771V78.7944L76.86 79.2074L44.353 81.3462L31.0669 82.1984L34.638 89.3206C34.638 89.3206 38.5046 87.3607 40.7315 86.1745C41.008 86.0271 41.3252 85.9741 41.6346 86.0237C41.9441 86.0734 42.2288 86.2229 42.4453 86.4494C43.8323 87.893 47.0768 90.9768 51.3691 93.1702C51.8579 93.42 52.4473 93.3568 52.8819 93.0216C54.1753 92.0247 56.9498 89.799 58.8733 87.6312C59.411 87.0253 60.3476 87.0034 60.9301 87.5667C62.2285 88.8218 64.3553 90.9441 65.7162 92.6453C66.1537 93.1929 66.9299 93.3332 67.5358 92.9812C68.0929 92.6579 68.8164 92.1869 69.6197 91.5389C69.0269 93.8347 68.15 96.416 66.8327 98.9702C68.5534 100.275 71.472 102.543 73.7543 104.598C74.4013 105.18 75.3748 105.185 76.0167 104.597C77.0242 103.674 78.4483 102.349 79.2348 101.526C79.5154 101.233 79.7467 100.897 79.9199 100.53C80.9169 98.4307 84.4582 90.274 83.1374 82.8771Z" fill="#7C3E65"/>
<path d="M17.2034 58.8921C17.2034 58.8921 10.3483 69.5037 10.6896 83.0701C10.717 84.1976 11.1304 85.2816 11.8607 86.1411C12.7381 87.1717 14.0771 88.6665 15.6186 90.1219C15.9872 90.4701 16.555 90.4895 16.935 90.1536C18.3239 88.9256 21.6759 86.0547 24.3968 84.4649C24.6648 84.3082 25.0002 84.3559 25.2204 84.5747C26.2535 85.6009 29.4122 88.5353 33.5642 90.4743C33.7366 90.5542 33.9286 90.5816 34.1165 90.5531C34.3043 90.5246 34.4796 90.4415 34.6205 90.3141C35.835 89.2214 39.1117 86.2092 41.2347 83.657C41.4899 83.3501 41.9418 83.3093 42.2373 83.5773C43.6669 84.8734 47.7004 88.4017 51.3654 90.4007C51.7466 90.6086 52.2172 90.5267 52.5184 90.2139C53.7877 88.8953 57.1098 85.3297 58.8514 82.381C59.0716 82.0077 59.5766 81.9343 59.9 82.2228C61.3118 83.4833 64.6784 86.568 66.3203 88.743C66.4012 88.8508 66.5038 88.9405 66.6215 89.0062C66.7391 89.0719 66.8693 89.1122 67.0035 89.1246C67.1377 89.1369 67.273 89.1209 67.4007 89.0777C67.5284 89.0345 67.6455 88.965 67.7447 88.8737C69.2478 87.4975 72.3905 84.4108 73.8766 81.3991C74.0851 80.9765 74.6405 80.8848 74.9789 81.2121C76.277 82.4676 79.0207 85.249 80.6102 87.7884C81.0215 88.445 81.9825 88.4165 82.3198 87.719C82.9159 86.4868 83.7949 84.8154 84.8069 83.3526C85.4711 82.3928 85.7285 81.2138 85.5887 80.0547C85.1772 76.6409 84.0388 69.6927 81.2993 65.7662C81.0532 65.4136 80.6555 65.2051 80.2271 65.1685C77.521 64.9376 67.2547 63.8735 62.4623 60.696C62.0161 60.4002 61.4508 60.3568 60.9518 60.5505L51.8037 64.0977C51.8037 64.0977 55.58 66.7513 56.3966 67.7724C56.3966 67.7724 56.7027 75.5293 56.1923 78.081C56.1923 78.081 55.0696 73.4879 53.7427 71.4466C53.7427 71.4466 47.4146 69.3033 44.557 63.3835L43.4341 58.8926H17.2034V58.8921Z" fill="#AF6D94"/>
<path d="M82.3196 87.7183C82.9157 86.4863 83.7947 84.8149 84.8066 83.3521C85.4711 82.3923 85.728 81.2133 85.5885 80.0539C85.177 76.6404 84.0386 69.6922 81.2991 65.7657C81.053 65.4128 80.6553 65.2046 80.2268 65.1677C77.7762 64.9588 69.1376 64.0606 63.9669 61.5339C66.5539 66.1637 71.1219 76.3286 69.1376 87.5381C70.7239 85.9489 72.7638 83.6531 73.8766 81.3986C74.0851 80.9761 74.6405 80.8843 74.9789 81.2116C76.277 82.4671 79.0207 85.2485 80.6102 87.7879C81.021 88.4448 81.9822 88.4157 82.3196 87.7183ZM41.8621 65.7013L44.9203 68.1738C45.0172 68.2522 45.1288 68.3105 45.2486 68.3452C45.3684 68.38 45.4939 68.3904 45.6178 68.376C45.7416 68.3616 45.8614 68.3226 45.97 68.2613C46.0786 68.2 46.1738 68.1176 46.2502 68.019L47.0541 66.9802C46.1141 65.9779 45.2362 64.7905 44.557 63.3831L43.4341 58.8921H37.0598L33.2495 68.3884C33.2495 68.3884 37.6905 67.1864 40.5816 65.5817C40.9916 65.354 41.4973 65.4064 41.8621 65.7013Z" fill="#7C3E65"/>
<path d="M76.1031 54.4701L68.8813 64.2809C68.4098 64.9212 68.5943 65.8251 69.2836 66.2214C71.1261 67.2805 74.5387 69.2023 76.714 70.1872C76.9775 70.3073 77.2703 70.3481 77.5566 70.3046C77.843 70.2611 78.1104 70.1351 78.3264 69.9421C79.4771 68.9124 81.737 66.7989 82.9423 65.0519C83.2728 64.5733 83.323 63.9543 83.1013 63.4164C82.3751 61.6516 80.4629 57.455 77.5893 54.3906C77.1749 53.9482 76.4627 53.9819 76.1031 54.4701Z" fill="#7C3E65"/>
<path d="M17.0347 70.8268C16.3346 71.6756 15.5296 73.1172 15.1612 75.4632C15.0914 75.9025 15.0902 76.35 15.1575 76.7897C15.2572 77.4293 15.5114 78.3093 16.1505 79.0478C16.4874 79.4372 17.0864 79.4637 17.4577 79.1071C17.7354 78.8412 17.9978 78.5597 18.2435 78.264C18.8001 77.5861 19.1497 76.7623 19.2505 75.8909C19.3809 74.7835 19.4363 73.0087 18.8649 71.1755C18.6158 70.3767 17.567 70.1811 17.0347 70.8268Z" fill="#EFC3EB"/>
<path d="M22.9196 42.3579C22.9196 42.3579 16.8157 51.5136 14.0117 58.0245C13.8102 58.4925 13.693 58.9862 13.6433 59.4934C13.5441 60.5051 13.4081 62.3523 13.4831 64.3471C13.5313 65.629 14.891 66.4315 16.0255 65.8323C18.3897 64.5841 22.0747 62.683 24.5736 61.6091C24.8075 61.5087 25.0713 61.5026 25.3096 61.5922C25.5479 61.6818 25.7424 61.86 25.8523 62.0897C26.5551 63.5335 28.2502 66.5152 31.1012 68.6321C31.5741 68.9844 32.1456 69.1794 32.7352 69.1896C33.3248 69.1999 33.9027 69.0248 34.3875 68.6892C36.0445 67.5402 38.7149 65.4914 40.9002 62.8957C41.2144 62.5223 41.7814 62.51 42.0952 62.8838C42.6787 63.5786 43.606 64.6555 44.5042 65.5837C44.8935 65.9861 45.5511 65.9398 45.8725 65.4811C47.1426 63.6676 50.1976 59.3524 52.7924 56.0525C53.1977 55.537 53.0894 54.7908 52.5584 54.4064L42.8222 47.3593C42.8222 47.359 31.2887 42.1539 22.9196 42.3579Z" fill="#AF6D94"/>
<path d="M42.8221 47.359C42.8221 47.359 38.2379 45.291 32.7529 43.813V44.9317C32.7529 44.9317 32.8393 48.0367 38.2923 53.1741C38.7436 53.5994 39.4139 53.6959 39.9583 53.3983L46.3452 49.909L42.8221 47.359Z" fill="#7C3E65"/>
<path d="M23.4207 50.3491C22.3965 51.031 21.0683 52.3129 19.9144 54.7049C19.6976 55.1525 19.5515 55.631 19.4813 56.1234C19.3809 56.84 19.3683 57.8645 19.8128 58.8617C20.0473 59.3876 20.6798 59.6101 21.1926 59.3485C21.576 59.1539 21.948 58.9375 22.3067 58.7005C23.1227 58.1574 23.7613 57.3854 24.1529 56.4869C24.651 55.3438 25.2849 53.4621 25.2665 51.315C25.2586 50.3793 24.1996 49.8303 23.4207 50.3491Z" fill="#EFC3EB"/>
<path d="M41.7322 25.2638C37.4324 26.7647 26.8056 31.2931 22.2925 40.6013L21.4976 45.9015C21.3099 47.1519 22.5391 48.1468 23.7199 47.6943C26.196 46.7453 28.7571 45.7472 31.7536 45.3332C32.1375 45.2801 32.5229 45.46 32.7338 45.7851C33.4524 46.8927 35.2845 49.4829 37.6714 51.1334C38.1995 51.4984 38.8881 51.5395 39.4622 51.2523L42.4126 49.7769C42.7769 49.5943 43.0983 49.3366 43.3558 49.0209C43.6134 48.7052 43.8012 48.3385 43.9069 47.945C44.5773 45.4649 46.2534 39.8675 48.5059 36.6181C48.9575 35.9667 49.0052 35.1223 48.5832 34.4515C47.4514 32.6518 45.2855 29.0758 44.1614 26.3493C43.7691 25.3982 42.704 24.9244 41.7322 25.2638Z" fill="#AF6D94"/>
<path d="M35.7624 32.2253C34.3852 32.4733 32.4197 33.2097 30.1337 35.1828C29.705 35.5516 29.3361 35.9847 29.0401 36.4665C28.6111 37.1688 28.1344 38.2317 28.1472 39.4732C28.1539 40.1278 28.713 40.6461 29.3664 40.6053C29.8544 40.5758 30.3403 40.5183 30.8218 40.4332C31.9189 40.2359 32.9342 39.7193 33.7493 38.9594C34.7861 37.9925 36.2986 36.3161 37.251 34.068C37.6656 33.0883 36.8095 32.0365 35.7624 32.2253Z" fill="#EFC3EB"/>
<defs>
<linearGradient id="paint0_linear_112_1637" x1="100.456" y1="18.6027" x2="16.7545" y2="77.1368" gradientUnits="userSpaceOnUse">
<stop stop-color="#FFB77F"/>
<stop offset="1" stop-color="#C6753E"/>
</linearGradient>
<linearGradient id="paint1_linear_112_1637" x1="63.6474" y1="52.4581" x2="50.869" y2="74.8201" gradientUnits="userSpaceOnUse">
<stop stop-color="#FFB77F"/>
<stop offset="1" stop-color="#C6753E"/>
</linearGradient>
</defs>
</svg>
