<svg width="100" height="100" viewBox="0 0 100 100" fill="none" xmlns="http://www.w3.org/2000/svg">
<path d="M45.9792 63.1789C45.9792 63.1789 49.7602 83.4744 45.9807 97.5133C45.876 97.9018 46.3883 98.1371 46.6116 97.8022C49.1938 93.9258 54.8895 83.7992 54.8206 69.9729L45.9792 63.1789ZM54.0149 47.203C54.0149 47.203 58.4999 52.3496 65.6307 54.4014C65.9948 54.5061 66.2374 54.0338 65.9313 53.8108C62.9876 51.6637 56.4126 46.4346 54.3575 41.2057L54.0149 47.203Z" fill="#C76266"/>
<path d="M56.8653 26.8523C56.8653 26.8523 60.189 39.4006 54.2071 42.8619C54.2071 42.8619 48.8466 40.2722 49.1736 33.0242C49.3499 29.1154 52.9069 25.8769 56.7064 26.8117C56.7589 26.8248 56.812 26.8384 56.8653 26.8523Z" fill="#5D90C1"/>
<path d="M54.9647 25.9582V32.95C54.9647 33.5012 54.8805 34.0541 54.669 34.5629C54.2634 35.5399 53.3051 36.7611 51.0507 36.7611C51.0507 36.7611 47.7628 34.8824 48.5977 29.8723C48.5977 29.8723 49.5893 25.384 54.9647 25.9582Z" fill="#FFC3B0"/>
<path d="M47.2776 37.624C46.3503 36.8891 45.0206 36.9215 44.1429 37.7149C43.6333 38.1754 43.1108 38.8766 42.678 39.9434C42.678 39.9434 38.5173 52.0356 30.5253 55.4268C30.146 55.5877 30.2185 56.209 30.6296 56.1803C33.8761 55.9547 39.4044 55.7045 44.4126 47.1168C44.4126 47.1168 45.7624 51.7131 46.1423 54.6342C46.2224 55.2496 46.0306 55.8639 45.639 56.3457C44.3897 57.8834 42.0032 61.8932 47.1438 65.6354L56.9923 72.8545C57.4181 73.1668 57.472 73.7781 57.1104 74.1629C55.5962 75.7742 51.4067 79.4936 44.3796 80.3168C43.7528 80.3902 43.7077 81.2742 44.3255 81.4035C49.1788 82.4184 58.3987 83.0469 65.5597 75.81C66.8474 74.5088 66.8567 72.4112 65.6126 71.068L53.2425 57.7115C53.2429 57.7115 57.7073 45.8914 47.2776 37.624Z" fill="url(#paint0_linear_51_1618)"/>
<path d="M65.613 71.068L53.2428 57.7115C53.2428 57.7115 57.176 47.2937 49.0274 39.1779C49.845 40.8318 51.4764 44.0322 51.7436 48.3135L52.8229 48.667C52.8229 48.667 53.218 49.4066 52.3126 50.0871C52.1243 50.1004 51.945 50.1006 51.7717 50.0924L51.7702 50.0873L51.7698 50.0924C50.4643 50.031 49.5774 49.408 49.0532 48.8785C48.8989 48.7226 48.6393 48.8889 48.7212 49.0922C49.4278 50.848 51.128 51.3887 51.6702 51.5195C51.4858 53.2937 51.0458 55.2 50.2268 57.2205C50.013 57.7478 50.1266 58.3476 50.5426 58.7365C52.6573 60.7113 59.1391 66.8055 63.0536 70.9244C63.5548 71.4519 63.8721 72.1166 63.9969 72.8336C64.0897 73.3664 64.1553 73.9363 63.9298 74.7199C63.9298 74.7199 63.12 77.3572 59.2516 80.1791C61.4215 79.2224 63.5708 77.8203 65.5606 75.809C66.8479 74.5082 66.8565 72.4107 65.613 71.068Z" fill="#E8897B"/>
<path d="M56.8356 26.54C57.2312 27.6418 56.4435 28.8273 55.2741 28.8801C53.9583 28.9395 52.3679 29.3451 51.238 31.0445C49.7831 33.232 50.0673 35.6756 51.8343 37.6201C54.4005 40.444 58.2634 46.3078 55.1249 53.7334L54.7437 54.75C54.4491 55.5354 53.2987 55.3842 53.2198 54.549C53.0487 52.7344 52.5976 50.6305 51.5472 48.7924C50.822 47.5232 50.346 46.8084 48.986 45.3053C47.8817 44.0846 45.947 42.8818 44.6634 39.9582C43.6558 37.6633 43.4401 35.1059 43.8507 32.6334C44.4718 28.8916 45.9892 24.5434 49.7024 23.1449C51.1468 22.601 52.7687 22.7027 54.1743 23.3393C55.1968 23.8022 56.2253 24.8408 56.8356 26.54Z" fill="#F0FFFF"/>
<path d="M53.3205 29.2957C53.9818 29.0185 54.658 28.908 55.2742 28.8801C56.4436 28.8273 57.2314 27.6418 56.8357 26.54C56.2254 24.8406 55.1969 23.8019 54.1742 23.3389C53.2637 22.9264 52.2623 22.7428 51.2773 22.8096C52.8061 23.7803 54.2113 25.6695 53.3205 29.2957ZM53.2197 54.5488C53.2984 55.384 54.449 55.5353 54.7436 54.7498L55.1248 53.7332C57.526 48.0523 55.8287 43.2875 53.7496 40.0967C54.965 42.8621 55.8361 49.6424 52.1746 50.0935C52.8596 51.9246 53.066 52.918 53.2197 54.5488Z" fill="#A3CBFA"/>
<path d="M20.376 20.5912C30.0747 23.3154 35.1555 30.8242 37.5551 35.8689C37.9993 36.8029 39.4616 36.4713 39.3999 35.4388L39.3981 35.4125C39.2073 32.6937 38.4985 26.5627 35.8979 22.4533C35.637 22.041 35.3342 21.6621 35.0184 21.2902C32.669 18.5248 22.2969 6.67224 13.5788 2.38005C13.5788 2.38005 13.3694 2.27537 13.01 2.15877L12.9815 2.14978C11.5528 1.6906 10.068 2.69412 9.97486 4.19197C9.62916 9.74314 10.8643 17.9193 20.376 20.5912Z" fill="url(#paint1_linear_51_1618)"/>
<path d="M87.1046 10.3135C86.7814 10.392 86.5911 10.468 86.5911 10.468C80.7823 12.7481 74.0056 18.3256 69.9413 21.983C65.7132 25.7879 62.997 30.8154 62.2792 36.2498L62.27 36.3205C62.1796 37.0166 62.4734 37.7084 63.0525 38.1662L63.3868 38.0832C65.1405 32.5145 68.9925 27.3276 78.1972 25.018C85.5585 23.1709 88.6863 17.1371 89.972 13.1582C90.4991 11.5276 88.9247 9.88576 87.1415 10.3047L87.1046 10.3135Z" fill="url(#paint2_linear_51_1618)"/>
<path d="M38.7068 58.3537C37.8363 58.6026 36.9984 58.9668 36.2402 59.4615C32.7259 61.7545 31.2503 64.0188 30.0605 65.7596C29.1003 67.1645 28.6101 68.8643 28.8232 70.5528C28.8406 70.6903 28.8617 70.8242 28.8865 70.9545C29.3025 73.1395 31.0136 74.4358 32.8878 74.6928C33.4679 74.7723 33.9255 74.2184 33.7884 73.6492C32.2935 67.451 36.6011 61.8225 39.1773 59.1233C39.506 58.7785 39.1648 58.2229 38.7068 58.3537Z" fill="url(#paint3_linear_51_1618)"/>
<path d="M70.6563 62.192C67.5337 62.7014 63.645 60.5846 60.9631 58.7453C60.6485 58.5297 60.2657 58.8971 60.471 59.2186C61.4106 60.6895 62.9055 62.883 63.8659 63.8793C63.8659 63.8793 64.7641 64.8469 65.9829 65.5899C68.3381 67.0254 71.2241 65.2977 71.3612 62.8426C71.3833 62.4483 71.0456 62.1287 70.6563 62.192Z" fill="url(#paint4_linear_51_1618)"/>
<defs>
<linearGradient id="paint0_linear_51_1618" x1="47.8681" y1="45.8406" x2="50.1806" y2="126.392" gradientUnits="userSpaceOnUse">
<stop offset="0.005" stop-color="#FFC3B0"/>
<stop offset="1" stop-color="#E8897B"/>
</linearGradient>
<linearGradient id="paint1_linear_51_1618" x1="13.0403" y1="6.27869" x2="37.0426" y2="33.2547" gradientUnits="userSpaceOnUse">
<stop stop-color="#DCEFFF"/>
<stop offset="1" stop-color="#B8E0F1"/>
</linearGradient>
<linearGradient id="paint2_linear_51_1618" x1="87.3698" y1="14.1365" x2="60.3935" y2="34.5279" gradientUnits="userSpaceOnUse">
<stop stop-color="#DCEFFF"/>
<stop offset="1" stop-color="#B8E0F1"/>
</linearGradient>
<linearGradient id="paint3_linear_51_1618" x1="31.2566" y1="71.142" x2="36.5669" y2="61.1586" gradientUnits="userSpaceOnUse">
<stop stop-color="#DCEFFF"/>
<stop offset="1" stop-color="#B8E0F1"/>
</linearGradient>
<linearGradient id="paint4_linear_51_1618" x1="68.851" y1="64.1197" x2="63.3282" y2="60.9336" gradientUnits="userSpaceOnUse">
<stop stop-color="#DCEFFF"/>
<stop offset="1" stop-color="#B8E0F1"/>
</linearGradient>
</defs>
</svg>
