<svg width="132" height="132" viewBox="0 0 132 132" fill="none" xmlns="http://www.w3.org/2000/svg">
<path d="M83.6714 54.3298C83.6714 54.3298 91.3294 57.2692 96.4184 61.6669C97.1539 62.3027 97.3589 63.3894 96.8729 64.2314C96.0474 65.6612 95.3998 68.0952 98.4399 70.333C98.4399 70.333 105.31 75.0198 108.731 80.2673C109.346 81.2109 109.009 82.4381 108.083 83.0795C107.211 83.6844 106.42 84.8474 106.746 87.0805C107.397 91.5466 108.463 106.991 98.4397 112.481C98.4397 112.481 107.955 84.8474 84.1365 69.3095L83.6714 54.3298Z" fill="url(#paint0_linear_125_2377)"/>
<path d="M4.63965 7.88414C13.238 8.79654 29.83 12.6294 38.8392 28.3632C39.1591 28.923 39.3604 29.5427 39.4304 30.1837C39.5004 30.8247 39.4378 31.4732 39.2463 32.0889C37.9016 36.4217 35.1796 47.4877 39.8617 54.3298L37.4929 56.4694C37.4929 56.4694 33.1932 52.5184 27.1676 51.3085C26.0213 51.0783 25.2873 49.9602 25.5727 48.8263C26.4619 45.2981 26.3304 38.3393 13.4347 34.7051C12.4931 34.4399 11.8648 33.545 11.9579 32.5712C12.3601 28.3684 12.4573 17.294 3.61613 10.3548C2.52971 9.50165 3.2655 7.73822 4.63965 7.88414Z" fill="url(#paint1_linear_125_2377)"/>
<path d="M65.052 1.78797C59.4727 5.6353 49.4827 14.4865 49.1698 28.6938C49.1591 29.199 49.2526 29.7011 49.4444 30.1686C49.6361 30.6362 49.922 31.0593 50.2843 31.4117C52.8325 33.8918 58.8498 40.4928 58.1875 46.957L60.6197 47.5435C60.6197 47.5435 62.1011 43.213 65.7974 40.1239C66.5007 39.5364 66.5871 38.4914 65.966 37.8178C64.0329 35.7212 61.5179 30.8803 69.037 23.5497C69.5862 23.0144 69.6839 22.1631 69.2552 21.5274C67.4046 18.784 63.1917 11.1945 66.6817 3.10642C67.1107 2.11204 65.9436 1.17308 65.052 1.78797Z" fill="url(#paint2_linear_125_2377)"/>
<path d="M119.847 38.4249C118.164 28.1085 111.679 22.8058 105.458 20.0905C96.4912 16.1764 86.106 16.8101 77.658 21.7457C66.0626 28.52 62.1418 40.7058 61.1768 44.4701C61.0929 44.7968 60.9024 45.0862 60.6354 45.2924C60.3685 45.4987 60.0404 45.61 59.7031 45.6088C37.201 45.6088 18.9595 63.8503 18.9595 86.3522V87.3087C18.9595 103.155 31.8058 116.001 47.6522 116.001H59.8307C74.5854 116.001 86.5468 104.04 86.5468 89.2854V44.689C86.5468 40.6191 89.846 37.3199 93.9159 37.3199H94.415C96.6195 37.3199 98.4064 39.1071 98.4064 41.3114V49.0694C98.4064 49.8831 98.7955 50.6393 99.4462 51.1276C101.277 52.5017 104.927 56.1575 105.375 63.6933C105.426 64.5629 106.141 65.2472 107.012 65.2472H111.479C112.35 65.2472 113.065 64.5627 113.117 63.6933C113.565 56.157 117.215 52.5009 119.046 51.1273C119.697 50.639 120.085 49.8828 120.085 49.0694V39.8704C120.085 39.3641 119.987 38.8851 119.847 38.4249Z" fill="url(#paint3_linear_125_2377)"/>
<path d="M86.5468 44.689C86.5468 43.5894 86.7941 42.5502 87.2256 41.613L72.9457 45.1894C72.9457 45.1894 62.1985 79.2356 39.6863 79.5357C39.6863 79.5357 25.4718 80.8756 26.2414 63.1174C21.6557 69.7089 18.9595 77.7137 18.9595 86.3523V87.3088C18.9595 103.155 31.8058 116.001 47.6522 116.001H59.8307C74.5854 116.001 86.5468 104.04 86.5468 89.2854V44.689Z" fill="#D2691E"/>
<path d="M88.3135 33.106C88.3135 33.106 72.953 33.106 72.391 49.5113V84.9526C72.391 88.6777 71.4198 92.3435 69.5128 95.5435C65.2418 102.709 55.4014 113.392 34.8311 112.977C38.6905 114.908 43.0426 116.001 47.6521 116.001H59.8306C74.5852 116.001 86.5467 104.04 86.5467 89.2851V44.6887C86.5467 40.6189 89.8459 37.3196 93.9158 37.3196H94.4149C96.6194 37.3196 98.4063 39.1068 98.4063 41.3111V42.2931C98.4063 42.2934 99.5618 33.106 88.3135 33.106Z" fill="#DEB887"/>
<path d="M93.9158 37.3199H94.4149C96.6194 37.3199 98.4063 39.1071 98.4063 41.3114V42.2934C98.4063 42.2934 99.5616 33.106 88.3135 33.106C88.3135 33.106 72.953 33.106 72.391 49.5113V53.7302C75.1465 46.2245 79.6082 46.2175 79.6082 46.2175C83.718 46.0304 85.6637 48.4695 86.5467 50.3322V44.6887C86.5467 40.6191 89.8459 37.3199 93.9158 37.3199ZM86.5467 89.2854V79.4777C86.1112 81.2829 85.4283 83.474 84.3808 85.4135C81.9739 89.8703 75.8761 90.6698 72.6155 86.7934C72.5207 86.6804 72.4304 86.5495 72.3374 86.4285C72.1149 89.6406 71.1674 92.7676 69.5128 95.5435C65.2418 102.709 55.4014 113.392 34.8311 112.977C38.6905 114.908 43.0426 116.001 47.6521 116.001H59.8306C74.5855 116.001 86.5467 104.04 86.5467 89.2854Z" fill="#B8860B"/>
<path d="M120.085 46.3706C120.085 46.3706 123.624 47.1492 126.203 43.7069C126.805 42.9038 127.135 41.9301 127.249 40.9329C127.386 39.7402 127.756 37.8639 128.752 36.415C129.167 35.8109 128.686 35.0168 127.962 35.1261C125.808 35.451 122.509 36.5529 120.085 40.1045V46.3706ZM98.4398 46.3706C98.4398 46.3706 94.9006 47.1492 92.3219 43.7069C91.7199 42.9038 91.3905 41.9301 91.2757 40.9329C91.1386 39.7402 90.7689 37.8639 89.7727 36.415C89.3576 35.8109 89.8387 35.0168 90.5634 35.1261C92.7169 35.451 96.0156 36.5529 98.4398 40.1045V46.3706Z" fill="#D2691E"/>
<path d="M98.6504 40.7813C96.9862 40.7813 95.6371 39.4325 95.6371 37.768V33.9875C95.6371 32.9915 95.4339 32.0077 95.0178 31.1028C94.5865 30.1651 93.8571 28.9596 92.6266 27.6223C92.2695 27.2343 92.0287 26.7599 91.9576 26.2374C91.7077 24.3984 91.3999 19.8761 93.6867 16.417C94.1835 15.666 95.3612 16.0424 95.3638 16.943C95.3651 17.3464 95.3736 17.7855 95.3934 18.249C95.5468 21.8316 96.9303 25.2169 99.082 28.0856C100.379 29.8155 101.899 32.9459 101.657 37.9686C101.581 39.5529 100.236 40.7813 98.6504 40.7813Z" fill="#DEB887"/>
<path d="M86.547 67.6329V89.004C86.547 92.3775 85.9246 95.7397 84.56 98.8249C82.3395 103.845 77.6718 109.59 67.9094 110.032C67.9094 110.032 58.8115 110.427 51.9942 108.193C48.1443 106.931 44.1693 106.043 40.1191 105.943C33.4662 105.779 24.7697 107.296 17.9988 114.534C16.5749 116.056 17.7982 118.517 19.8653 118.251C24.8733 117.605 32.3563 117.368 38.0692 120.327C38.6204 120.613 39.1347 120.961 39.6444 121.316C42.7975 123.51 56.5342 132.252 72.3913 130.058C72.3913 130.058 94.8586 129.368 101.76 108.661C104.153 101.484 104.019 93.6617 101.541 86.5136C99.3582 80.2183 95.0416 72.4221 86.547 67.6329Z" fill="url(#paint4_linear_125_2377)"/>
<path d="M101.541 86.5134C99.3582 80.2184 95.0417 72.4221 86.547 67.633V89.0041C86.547 92.3776 85.9246 95.7397 84.56 98.825C84.4907 98.9815 84.4115 99.1405 84.3375 99.2986C82.0837 121.784 66.1316 127.499 55.8467 128.822C60.7614 130.161 66.4258 130.883 72.3913 130.058C72.3913 130.058 94.8586 129.368 101.761 108.662C104.153 101.484 104.019 93.6618 101.541 86.5134ZM119.847 38.4249C119.764 37.9147 119.66 37.4262 119.553 36.9402C118.801 42.0598 115.868 43.1099 113.993 44.7872C112.569 46.0626 111.256 47.8588 111.257 49.8102C111.382 50.7424 111.71 51.6275 112.186 52.4391C112.974 53.7841 113.74 56.2359 113.517 60.6069C114.617 55.1111 117.512 52.2731 119.067 51.1124C119.384 50.875 119.642 50.5667 119.818 50.212C119.995 49.8573 120.087 49.4661 120.086 49.0697V39.8707C120.086 39.3641 119.988 38.8851 119.847 38.4249Z" fill="#D2691E"/>
<path d="M102.823 45.1254C102.858 45.9081 103.002 46.9507 103.457 47.8807C103.901 48.79 104.763 49.4252 105.731 49.7214L106.36 49.914C107.008 50.1126 107.571 49.435 107.259 48.8335C106.657 47.6703 105.589 46.0453 103.837 44.6351C103.424 44.3025 102.799 44.5959 102.823 45.1254ZM116.256 45.1254C116.221 45.9081 116.076 46.9507 115.622 47.8807C115.177 48.79 114.315 49.4252 113.347 49.7214L112.718 49.914C112.07 50.1126 111.508 49.435 111.819 48.8335C112.422 47.6703 113.49 46.0453 115.241 44.6351C115.654 44.3025 116.279 44.5959 116.256 45.1254Z" fill="white"/>
<path d="M119.813 40.7813C121.477 40.7813 122.826 39.4325 122.826 37.768V33.9875C122.826 32.9915 123.029 32.0077 123.445 31.1028C123.877 30.1651 124.606 28.9596 125.836 27.6223C126.193 27.2343 126.434 26.7599 126.505 26.2374C126.755 24.3984 127.063 19.8761 124.776 16.417C124.279 15.666 123.102 16.0424 123.099 16.943C123.098 17.3785 123.088 17.8139 123.07 18.249C122.916 21.8316 121.532 25.2169 119.381 28.0856C118.084 29.8155 116.564 32.9459 116.806 37.9686C116.882 39.5529 118.226 40.7813 119.813 40.7813Z" fill="#DEB887"/>
<defs>
<linearGradient id="paint0_linear_125_2377" x1="82.8482" y1="64.7743" x2="95.4122" y2="83.9197" gradientUnits="userSpaceOnUse">
<stop stop-color="#C5C391"/>
<stop offset="1" stop-color="#DEE0B1"/>
</linearGradient>
<linearGradient id="paint1_linear_125_2377" x1="35.0587" y1="50.316" x2="25.4861" y2="30.971" gradientUnits="userSpaceOnUse">
<stop stop-color="#C5C391"/>
<stop offset="1" stop-color="#DEE0B1"/>
</linearGradient>
<linearGradient id="paint2_linear_125_2377" x1="58.8256" y1="41.5445" x2="59.6233" y2="17.0144" gradientUnits="userSpaceOnUse">
<stop stop-color="#C5C391"/>
<stop offset="1" stop-color="#DEE0B1"/>
</linearGradient>
<linearGradient id="paint3_linear_125_2377" x1="69.5227" y1="25.2883" x2="69.5227" y2="187.19" gradientUnits="userSpaceOnUse">
<stop stop-color="#DAA520"/>
<stop offset="1" stop-color="#B8860B"/>
</linearGradient>
<linearGradient id="paint4_linear_125_2377" x1="29.8983" y1="108.44" x2="146.082" y2="86.2599" gradientUnits="userSpaceOnUse">
<stop stop-color="#DAA520"/>
<stop offset="1" stop-color="#B8860B"/>
</linearGradient>
</defs>
</svg>
