<svg width="49" height="53" viewBox="0 0 49 53" fill="none" xmlns="http://www.w3.org/2000/svg">
<path d="M24.293 9.75C26.2712 9.7498 27.7621 9.75049 28.8828 9.78125C29.9983 9.81187 30.7686 9.87289 31.2959 10.001C31.8304 10.1308 32.1686 10.3427 32.3408 10.7119C32.4214 10.8847 32.4571 11.0753 32.4746 11.2734C32.4921 11.4709 32.4922 11.6937 32.4922 11.9316C32.4922 12.5981 32.3095 13.1188 31.8213 13.4697C31.3587 13.8022 30.6605 13.9506 29.7178 14.0059L29.082 14.043L29.1104 14.8984C29.1432 15.899 29.3838 16.7557 29.8857 17.5674C30.3905 18.3834 31.167 19.167 32.2891 20.0088C35.1806 22.1781 36.673 23.8504 37.752 26.1689C38.5885 27.9663 38.9375 29.5488 38.9375 31.5449C38.9375 34.8398 38.0108 37.2012 35.8428 39.3936C34.3566 40.8964 32.5129 41.9525 30.627 42.3799L30.249 42.457C29.8113 42.5364 28.9179 42.5892 27.8223 42.6211C26.7192 42.6532 25.3906 42.6646 24.0693 42.6562C22.7481 42.6479 21.4317 42.6202 20.3525 42.5742C19.2834 42.5286 18.4228 42.4638 18.0293 42.3779H18.0283C12.1734 41.0987 8.7481 35.372 10.0117 29.084C10.6621 25.848 12.3143 23.277 15.1924 20.9961C16.9522 19.6015 17.9921 18.6569 18.5986 17.792C19.1922 16.9454 19.3764 16.1662 19.3848 15.0752L19.3926 14.0342L18.3994 13.9395C17.6897 13.8715 17.1523 13.7421 16.7666 13.4766C16.3649 13.2 16.1619 12.8004 16.0645 12.2812C15.9757 11.8082 15.9809 11.3988 16.1289 11.0391C16.2782 10.6762 16.5576 10.3999 16.9443 10.1641C17.1063 10.0654 17.2681 9.98579 17.5205 9.92676C17.7641 9.8698 18.0879 9.83292 18.5723 9.80762C19.5413 9.75701 21.21 9.75039 24.293 9.75Z" fill="#4E291A" stroke="#DAA520" stroke-width="0.5"/>
</svg>
