<svg width="123" height="70" viewBox="0 0 123 70" fill="none" xmlns="http://www.w3.org/2000/svg">
<g clip-path="url(#clip0_187_1476)">
<path d="M102.992 61.9519C102.992 61.7924 103.332 61.4371 103.747 61.1623C104.717 60.5203 104.904 60.1609 108.558 51.8906C110.244 48.0771 111.739 44.8351 111.882 44.6861C112.025 44.5371 112.261 44.4613 112.408 44.5174C112.554 44.5734 113.585 46.5412 114.7 48.8898C120.156 60.3865 120.263 60.5889 121.189 61.0996C121.654 61.3563 122.035 61.6965 122.035 61.8555C122.035 62.099 121.441 62.1529 118.275 62.1976C114.182 62.2555 114.01 62.2043 115.136 61.2643C115.753 60.7492 115.755 60.7408 115.507 59.8523C115.369 59.3607 115.09 58.6848 114.886 58.3498L114.516 57.7408L111.146 57.7941L107.777 57.8477L107.346 58.7266C106.72 60.0018 106.763 60.6693 107.512 61.285C108.489 62.0879 108.152 62.2422 105.422 62.2422C103.403 62.2422 102.992 62.1932 102.992 61.9519ZM113.631 56.0019C113.694 55.8998 113.304 54.831 112.765 53.6268C111.402 50.5805 111 50.0312 110.746 50.8652C110.689 51.0533 110.189 52.2051 109.636 53.4248C109.083 54.6445 108.677 55.7652 108.735 55.915C108.816 56.1271 109.357 56.1875 111.178 56.1875C112.464 56.1875 113.568 56.1041 113.631 56.0019Z" fill="#C4B390"/>
<path d="M23.5048 62.1343C20.73 61.3626 19.1774 59.6167 18.6294 56.6519C18.5153 56.0347 18.422 53.5626 18.422 51.1583C18.422 46.546 18.3739 46.2568 17.4864 45.5265C16.5823 44.7826 17.021 44.664 20.6796 44.664C22.9077 44.664 24.086 44.7343 24.086 44.8671C24.086 44.9788 23.7282 45.4107 23.2907 45.8269L22.4952 46.5835L22.5583 51.9226L22.6212 57.2617L23.139 58.2382C24.0702 59.9949 25.2134 60.6798 27.2714 60.715C28.7411 60.74 30.2302 60.0718 31.0239 59.0312C31.977 57.7816 32.0938 56.957 32.0938 51.4757V46.4355L31.4929 45.7509C31.1622 45.3744 30.9477 44.9757 31.0161 44.8652C31.1862 44.59 34.9606 44.5997 35.1313 44.8757C35.2034 44.9921 34.9669 45.3341 34.6058 45.6353L33.9493 46.183L33.8436 51.7222C33.7472 56.7798 33.7016 57.3517 33.3212 58.2978C32.6852 59.8792 31.6942 60.9541 30.1886 61.6953C28.9765 62.2919 28.72 62.3433 26.7268 62.3859C25.2686 62.4171 24.2292 62.3359 23.5048 62.1343Z" fill="#C4B390"/>
<path d="M20.961 69.0442C19.1539 68.7866 16.7977 67.953 13.0178 66.2342C6.97953 63.4883 5.23402 62.8989 2.55277 62.7006C0.596328 62.5559 0.440467 62.3657 1.63285 61.5766C2.06683 61.2893 2.50629 60.8325 2.60941 60.5614C2.7184 60.2746 2.79691 56.6065 2.79691 51.7954V43.5221L2.31254 42.9465C2.04613 42.6299 1.56274 42.261 1.23832 42.1266C0.597891 41.8614 0.465469 41.4559 0.957461 41.267C1.52816 41.0481 8.81918 41.1332 8.95961 41.3606C9.03168 41.4772 8.64144 41.9879 8.09223 42.4953L7.09379 43.4182V51.977V60.536L7.76586 61.1698C8.32152 61.6938 9.22699 62.061 12.9905 63.2889C23.1192 66.5934 26.8875 67.0155 30.9707 65.3036C31.6649 65.0125 31.7032 65.0155 31.7032 65.3606C31.7032 65.8846 30.0696 67.2498 28.4873 68.0483C26.3455 69.1291 23.8614 69.4577 20.961 69.0442Z" fill="#C4B390"/>
<path d="M93.7066 62.0336C93.6357 61.9189 93.9382 61.5166 94.3787 61.1395L95.1796 60.4539V53.4285V46.4031L94.6628 45.9242C94.3787 45.6607 94.071 45.4453 93.9793 45.4453C93.8875 45.4453 93.8125 45.2695 93.8125 45.0547C93.8125 44.6789 93.9425 44.6641 97.2365 44.6641C100.271 44.6641 100.675 44.7016 100.787 44.9941C100.863 45.1928 100.807 45.36 100.646 45.4137C100.498 45.4629 100.175 45.7057 99.9271 45.9535L99.4765 46.4041V53.4443C99.4765 61.1576 99.3837 60.5148 100.631 61.4395C101.542 62.1152 101.02 62.2422 97.3281 62.2422C95.0626 62.2422 93.7902 62.1689 93.7066 62.0336Z" fill="#C4B390"/>
<path d="M89.6131 62.6643C89.116 62.3889 88.1392 62.325 83.1678 62.2422C78.1861 62.1592 77.3084 62.1016 77.3084 61.8574C77.3084 61.6994 77.5265 61.4613 77.7933 61.3283C78.7781 60.8373 78.7732 60.877 78.7732 53.4068V46.4041L78.3035 45.9736C78.0451 45.7369 77.6916 45.4277 77.5179 45.2871C77.3443 45.1465 77.2531 44.9486 77.3156 44.8477C77.3797 44.7441 78.9568 44.6641 80.9332 44.6641C84.824 44.6641 84.9562 44.7168 83.7049 45.7672L82.9724 46.3818L82.9164 53.3557C82.8728 58.7807 82.9156 60.3959 83.109 60.6289C83.3138 60.8758 83.6844 60.9078 85.2158 60.8117C88.0082 60.6363 88.964 60.2807 90.4344 58.8688C92.1736 57.1986 92.3377 57.4603 91.3787 60.3758C90.9719 61.6129 90.5398 62.707 90.4189 62.807C90.2783 62.9232 89.9875 62.8717 89.6131 62.6643Z" fill="#C4B390"/>
<path d="M72.2303 62.5281C71.7746 62.3195 70.2871 62.2578 65.5408 62.251C59.8609 62.2428 59.4373 62.2185 59.4385 61.9004C59.4391 61.7123 59.7037 61.4084 60.0262 61.2248C60.3488 61.0412 60.6998 60.6621 60.8063 60.382C61.0637 59.7051 61.0637 47.2012 60.8063 46.5242C60.6998 46.2441 60.3488 45.865 60.0262 45.6814C59.7037 45.4978 59.4391 45.1939 59.4385 45.0058C59.4373 44.6883 59.8301 44.664 64.9611 44.664C68.973 44.664 70.7639 44.5918 71.5039 44.3998C72.2832 44.1976 72.5678 44.1894 72.7139 44.3654C72.992 44.7006 73.9373 48.7523 73.8129 49.0765C73.626 49.5637 73.3406 49.3744 72.617 48.2844C72.2273 47.6975 71.6273 47.0435 71.2836 46.831C70.1518 46.1316 66.1439 45.7519 65.4268 46.2764C65.1285 46.4945 65.0977 46.8973 65.1453 49.9385L65.199 53.3555L67.0545 53.3508C69.0701 53.3457 69.6797 53.1178 70.1803 52.1822C70.3236 51.9144 70.6018 51.6953 70.7984 51.6953C71.126 51.6953 71.1561 51.9002 71.1561 54.1252C71.1561 55.4617 71.0734 56.6062 70.9725 56.6685C70.8715 56.7308 70.4691 56.4363 70.0783 56.0139C69.1236 54.982 68.5758 54.7924 66.7484 54.8603L65.199 54.918L65.1445 57.6256C65.1049 59.5935 65.1576 60.4144 65.3377 60.6314C65.5449 60.881 65.9629 60.9109 67.8939 60.8139C70.6967 60.673 71.8449 60.2299 73.2764 58.7369C73.7967 58.1941 74.3236 57.75 74.4471 57.75C74.8908 57.75 74.6416 58.9685 73.598 61.9004C73.2445 62.8933 73.1363 62.943 72.2303 62.5281Z" fill="#C4B390"/>
<path d="M37.6263 61.9309C37.5443 61.7172 37.5909 61.5491 37.747 61.4971C37.887 61.4504 38.2763 61.1668 38.6122 60.8668L39.2228 60.3211V53.4463V46.5715L38.3484 45.8184C37.7038 45.2633 37.5314 45.0078 37.6923 44.8469C37.8472 44.692 39.5773 44.6526 43.6448 44.7114C50.8366 44.8153 51.4745 44.9752 53.9417 47.2934C58.0722 51.1743 56.9089 58.3598 51.7435 60.8725C49.4691 61.9789 48.6722 62.0991 42.9835 62.1932C38.1034 62.2741 37.7513 62.2567 37.6263 61.9309ZM46.2771 60.6641C49.4446 60.2235 51.0972 58.6879 51.9345 55.4071C52.4859 53.2467 52.0159 50.4619 50.7933 48.6448C49.5646 46.8184 47.6784 45.9731 45.0517 46.0715L43.5196 46.1289L43.4683 53.2348C43.4316 58.317 43.4802 60.4168 43.6388 60.6079C43.9064 60.9301 44.3032 60.9387 46.2771 60.6641Z" fill="#C4B390"/>
<path d="M75.9224 0.61499C76.0098 0.647469 76.0716 0.710282 76.1118 0.762451C76.1546 0.817929 76.1897 0.884462 76.2202 0.954834C76.2814 1.09601 76.3324 1.28089 76.3677 1.50171C76.6302 3.14314 77.8214 4.60007 79.5464 5.34546L80.1235 5.59448L80.645 5.82007L80.1265 6.05249L79.2915 6.42651C78.8434 6.62705 78.2231 6.97214 77.9224 7.18628C77.6498 7.38039 77.3048 7.8251 76.9937 8.38257C76.6865 8.9329 76.4332 9.55467 76.3257 10.072L76.1782 10.783L75.6938 10.8035L75.3218 9.56226C74.8936 8.13318 73.7014 6.83218 72.5015 6.44019C72.2657 6.36316 72.0696 6.28807 71.9312 6.20776C71.8622 6.16773 71.7906 6.11763 71.7368 6.05151C71.679 5.98052 71.6345 5.88211 71.6479 5.76538C71.6605 5.65724 71.7186 5.57462 71.7729 5.51733C71.8283 5.45901 71.8988 5.40716 71.9731 5.36108C72.122 5.26891 72.3306 5.17231 72.5874 5.06519C72.9507 4.91353 73.5454 4.51534 73.8892 4.18921C74.2191 3.87616 74.5995 3.32225 74.8999 2.75269C75.0488 2.47036 75.1752 2.1912 75.2632 1.94409C75.353 1.69164 75.3963 1.49243 75.397 1.36401C75.3979 1.15824 75.4202 0.981996 75.4722 0.853271C75.4977 0.790116 75.5405 0.712079 75.6167 0.656982C75.707 0.591836 75.8193 0.576738 75.9224 0.61499Z" fill="#C4B390" stroke="#F8F5F0" stroke-width="0.5"/>
<path d="M61.0586 5.35229C63.0368 5.3521 64.5278 5.35278 65.6484 5.38354C66.7639 5.41417 67.5342 5.47519 68.0615 5.60327C68.596 5.73313 68.9342 5.94503 69.1064 6.31421C69.187 6.48698 69.2227 6.67758 69.2402 6.87573C69.2577 7.07324 69.2578 7.29599 69.2578 7.53394C69.2578 8.2004 69.0752 8.72111 68.5869 9.07202C68.1243 9.40447 67.4261 9.55291 66.4834 9.60815L65.8477 9.64526L65.876 10.5007C65.9089 11.5013 66.1494 12.358 66.6514 13.1697C67.1561 13.9857 67.9326 14.7693 69.0547 15.6111C71.9462 17.7804 73.4386 19.4527 74.5176 21.7712C75.3541 23.5686 75.7031 25.1511 75.7031 27.1472C75.7031 30.4421 74.7764 32.8035 72.6084 34.9958C71.1222 36.4987 69.2785 37.5548 67.3926 37.9822L67.0146 38.0593C66.5769 38.1387 65.6835 38.1915 64.5879 38.2234C63.4848 38.2555 62.1562 38.2669 60.835 38.2585C59.5137 38.2502 58.1973 38.2225 57.1182 38.1765C56.049 38.1309 55.1884 38.0661 54.7949 37.9802H54.7939C48.939 36.701 45.5137 30.9743 46.7773 24.6863C47.4277 21.4502 49.0799 18.8793 51.958 16.5984C53.7178 15.2038 54.7577 14.2592 55.3643 13.3943C55.9578 12.5477 56.142 11.7685 56.1504 10.6775L56.1582 9.63647L55.165 9.54175C54.4554 9.47384 53.9179 9.34443 53.5322 9.07886C53.1306 8.80225 52.9275 8.40271 52.8301 7.88354C52.7414 7.41048 52.7466 7.00111 52.8945 6.64136C53.0438 6.2785 53.3233 6.00217 53.71 5.76636C53.8719 5.66765 54.0337 5.58809 54.2861 5.52905C54.5297 5.47209 54.8535 5.43522 55.3379 5.40991C56.307 5.35931 57.9756 5.35269 61.0586 5.35229Z" fill="#C4B390" stroke="#F8F5F0" stroke-width="0.5"/>
<path d="M61.1123 1.05469C62.9982 1.05469 64.1485 1.06635 64.8525 1.10938C65.2033 1.13082 65.4572 1.16106 65.6406 1.20508C65.8216 1.24851 65.9725 1.31397 66.0742 1.43652C66.1465 1.52362 66.1841 1.64514 66.208 1.74512C66.2346 1.85609 66.2544 1.98879 66.2686 2.13086C66.2969 2.41572 66.3053 2.7621 66.2969 3.10352C66.2885 3.44494 66.263 3.78923 66.2207 4.06934C66.1996 4.20878 66.1738 4.33868 66.1416 4.44629C66.1131 4.54144 66.0671 4.66369 65.9844 4.74609C65.9454 4.78484 65.9026 4.80205 65.8887 4.80762C65.8687 4.81558 65.8498 4.8215 65.835 4.8252C65.8048 4.83272 65.7703 4.83796 65.7363 4.84277C65.6671 4.85258 65.5751 4.86201 65.4668 4.87012C65.2491 4.8864 64.9479 4.9012 64.5898 4.91406C63.8721 4.93983 62.9156 4.95857 61.9219 4.96875C59.9421 4.98903 57.7866 4.97491 57.0723 4.90723C56.8655 4.88763 56.6576 4.84158 56.4873 4.78125C56.4023 4.75115 56.3215 4.71473 56.252 4.67383C56.188 4.63621 56.1093 4.58025 56.0576 4.49902C56.003 4.41317 55.971 4.30174 55.9492 4.19922C55.926 4.08977 55.9086 3.96129 55.8965 3.82422C55.8721 3.54961 55.8656 3.22139 55.875 2.90039C55.8844 2.57978 55.9099 2.25886 55.9502 1.99805C55.9703 1.86815 55.995 1.74716 56.0254 1.64648C56.0521 1.55814 56.0953 1.44183 56.1748 1.3623L56.2285 1.31836C56.2852 1.2796 56.3487 1.25636 56.3984 1.24121C56.4738 1.21831 56.5656 1.19937 56.6709 1.18359C56.8828 1.15185 57.1772 1.12825 57.5605 1.10938C58.3288 1.07155 59.4821 1.05469 61.1123 1.05469Z" fill="#C4B390" stroke="#F8F5F0" stroke-width="0.5"/>
</g>
<defs>
<clipPath id="clip0_187_1476">
<rect width="123" height="70" fill="white"/>
</clipPath>
</defs>
</svg>
