<svg width="166" height="166" viewBox="0 0 166 166" fill="none" xmlns="http://www.w3.org/2000/svg">
<g clip-path="url(#clip0_125_2346)">
<path d="M64.3223 26.0609L57.5717 28.2705C56.417 28.6485 55.8641 29.9612 56.3999 31.0517L60.3679 39.1256L75.2363 34.2588L73.6623 25.4013C73.4496 24.2048 72.2276 23.4733 71.0728 23.8513L64.3223 26.0609Z" fill="#DEB887"/>
<path d="M57.8763 34.0559L60.3678 39.1254L75.2362 34.2587L74.2479 28.6972L57.8763 34.0559Z" fill="#B8860B"/>
<path d="M94.7459 58.959L94.7679 58.9545C94.7554 58.9559 94.7436 58.9555 94.7311 58.9568C94.2266 58.8811 93.7208 58.8141 93.2139 58.756C89.1483 58.2902 85.4027 56.2001 83.1815 52.763C82.9563 52.4143 82.7424 52.0585 82.5399 51.6961C81.7994 50.3708 81.2212 48.9543 80.929 47.4647C79.6822 41.1128 83.2488 36.7484 83.2488 36.7484L55.378 45.8711C55.378 45.8711 60.8349 47.2819 63.5852 53.1417C64.2304 54.5158 64.6017 56.0003 64.7881 57.5067C64.8389 57.9186 64.8767 58.3321 64.9015 58.7464C65.1421 62.8318 63.3577 66.732 60.3544 69.5116C59.9794 69.8586 59.6113 70.2118 59.2496 70.5707C59.2387 70.577 59.2295 70.5843 59.2186 70.5906L59.239 70.5812C47.694 82.0414 43.325 99.8248 50.0816 116.194C58.0996 135.619 79.7787 146.066 99.9867 140.3C122.866 133.772 135.545 109.626 128.213 87.2236C123.14 71.7241 109.845 61.2263 94.7459 58.959Z" fill="url(#paint0_linear_125_2346)"/>
<path d="M81.082 30.3243L52.6513 39.6303C50.8721 40.2127 49.9021 42.1268 50.4845 43.9062C51.0669 45.6853 52.981 46.6554 54.7601 46.073L83.1909 36.7671C84.97 36.1847 85.9403 34.2705 85.358 32.4914C84.7755 30.7119 82.8612 29.742 81.082 30.3243Z" fill="#FFCCE0"/>
<path d="M55.3779 45.8708C55.3779 45.8708 57.6191 46.4579 59.9527 48.4157L81.0644 41.5054C81.7887 38.5467 83.249 36.7481 83.249 36.7481L55.3779 45.8708Z" fill="#DEB887"/>
<path d="M120.375 91.506C119.73 89.1092 118.817 86.7925 117.654 84.5996C114.894 79.4001 108.638 77.1164 103.189 79.3447C94.7367 82.8018 87.4358 90.8834 85.1727 93.5655C84.6294 94.2092 84.0676 94.839 83.457 95.4191C75.3486 103.124 67.61 104.654 61.8724 104.242C58.6255 104.008 56.1872 107.148 57.1963 110.244L57.2202 110.317C63.1103 128.311 83.0134 137.796 100.875 130.632C116.238 124.471 124.689 107.487 120.375 91.506Z" fill="#DAA520"/>
<path d="M61.884 76.3711C61.884 76.3711 53.7377 81.1376 55.4339 92.7848C55.618 94.0507 56.8129 94.9329 58.0794 94.7543C60.0746 94.473 63.0954 93.5121 65.9191 90.491C67.1867 89.1351 68.1675 87.5418 68.919 85.8444C69.8409 83.7642 70.8131 80.7627 70.2415 78.2247C69.6759 75.7148 66.9592 74.3477 64.5137 75.1474C63.6946 75.4155 62.7811 75.8051 61.884 76.3711Z" fill="white"/>
<path d="M75.4311 120.291C77.5878 119.585 78.7638 117.264 78.0579 115.108C77.352 112.951 75.0314 111.775 72.8748 112.481C70.7181 113.187 69.5421 115.507 70.248 117.664C70.9539 119.821 73.2745 120.997 75.4311 120.291Z" fill="#B8860B"/>
<path d="M87.0725 105.427C87.7341 105.21 88.0949 104.498 87.8783 103.837C87.6617 103.175 86.9498 102.814 86.2882 103.031C85.6266 103.248 85.2658 103.959 85.4823 104.621C85.6989 105.283 86.4108 105.644 87.0725 105.427Z" fill="#B8860B"/>
<path d="M102.738 121.768C106.414 120.564 108.418 116.609 107.215 112.933C106.012 109.257 102.056 107.252 98.3802 108.456C94.7041 109.659 92.6995 113.614 93.9028 117.29C95.106 120.966 99.0615 122.971 102.738 121.768Z" fill="#B8860B"/>
<path d="M107.561 95.3798C109.252 94.8263 110.174 93.0069 109.621 91.316C109.067 89.6251 107.248 88.7031 105.557 89.2565C103.866 89.81 102.944 91.6294 103.497 93.3203C104.051 95.0112 105.87 95.9332 107.561 95.3798Z" fill="#B8860B"/>
</g>
<defs>
<linearGradient id="paint0_linear_125_2346" x1="100.49" y1="136.557" x2="61.3818" y2="17.0776" gradientUnits="userSpaceOnUse">
<stop offset="0.01" stop-color="#FFCCE0"/>
<stop offset="1" stop-color="#FFE6FA"/>
</linearGradient>
<clipPath id="clip0_125_2346">
<rect width="131.498" height="131.498" fill="white" transform="translate(0 40.9065) rotate(-18.1244)"/>
</clipPath>
</defs>
</svg>
