<svg width="129" height="129" viewBox="0 0 129 129" fill="none" xmlns="http://www.w3.org/2000/svg">
<g clip-path="url(#clip0_125_1474)">
<path d="M38.6205 49.685L36.6152 50.3548C36.6152 50.3548 34.4142 50.4628 35.0771 47.4567C35.74 44.4507 38.477 43.0147 38.6282 38.9929C38.628 38.9928 41.4899 45.6824 38.6205 49.685Z" fill="#BC6662"/>
<path d="M43.0568 34.7681C42.1509 34.0558 40.8918 34.1462 40.1398 34.987C39.122 36.1248 37.9661 38.0673 38.1442 40.9192C38.1786 41.4708 38.2983 42.0166 38.4397 42.5527C38.7774 43.8324 39.3073 47.2285 36.615 50.3549C36.615 50.3549 42.1685 51.8894 44.3904 47.4513C44.3904 47.4513 47.5064 41.4763 51.5333 42.4328C51.5334 42.4325 46.1061 37.1657 43.0568 34.7681ZM55.3863 40.3085C55.3863 40.3085 54.1017 37.03 55.9031 32.5418C55.9031 32.5418 58.0265 27.8143 56.8483 23.9985C56.203 21.9084 54.0467 20.6751 51.998 21.1329C50.1588 21.5438 47.7793 22.8478 45.7776 26.4747L45.0332 27.9261C44.7233 28.5305 44.8818 29.2878 45.4136 29.7237C47.6985 31.5968 53.5685 36.6291 55.3863 40.3085Z" fill="#DB8B84"/>
<path d="M43.2814 37.5301C43.2814 37.5301 45.0873 38.5772 47.3685 36.11C48.0896 35.33 48.5748 34.3198 48.6119 33.2285C48.643 32.315 48.3878 31.2276 47.3571 30.2926C47.3571 30.2924 52.5453 32.792 56.4561 41.3339L51.9628 43.0119C51.9628 43.0119 46.6841 42.2007 43.2814 37.5301Z" fill="#F7BBB6"/>
<path d="M46.4808 37.2669C45.7472 37.7102 44.1409 38.1728 43.2809 37.5301C42.0093 36.58 41.965 35.0913 43.0561 33.1873C43.0561 33.1873 45.5939 29.1037 47.4362 30.3335C47.8793 30.6294 48.625 31.6655 48.8293 32.6658C49.108 34.0285 48.7973 35.8671 46.4808 37.2669Z" fill="#BC6662"/>
<path d="M53.7462 46.9684C53.7462 46.9684 52.2766 48.8467 52.5006 51.6798C52.5006 51.6798 53.3526 64.6499 46.7641 74.8546C46.0446 75.9685 45.3965 77.1238 44.9256 78.3634C43.3104 82.6141 41.226 92.3997 48.9782 100.769C48.9782 100.769 57.5765 110.812 76.6643 106.645C83.7055 105.107 90.0851 101.229 94.3439 95.4148C97.5605 91.0236 100.081 85.0229 99.1172 77.4323C98.7922 74.8725 97.9519 72.4136 96.5616 70.2396C94.6837 67.3028 91.2294 63.489 85.2268 61.3172C81.3787 59.9247 77.6286 58.2784 74.1244 56.1646C68.9561 53.0467 62.2977 48.5918 58.7599 44.4628L53.7462 46.9684Z" fill="url(#paint0_linear_125_1474)"/>
<path d="M85.2272 61.3172C81.379 59.9248 77.6289 58.2785 74.1249 56.1646C73.2725 55.6502 72.4257 55.1265 71.5848 54.5935C74.2333 58.3825 76.9348 62.9624 78.8937 68.0207C85.0546 83.9291 76.9625 101.118 62.4149 107.232C66.2787 107.862 71.0072 107.88 76.6647 106.645C83.7058 105.108 90.0852 101.229 94.3443 95.4149C97.5608 91.0237 100.081 85.023 99.1175 77.4324C98.7926 74.8726 97.9522 72.4137 96.5619 70.2397C94.6841 67.3031 91.2296 63.4893 85.2272 61.3172ZM53.8962 42.5958C53.8962 42.5958 54.6591 48.6388 54.5984 51.7039C54.5925 51.997 54.6452 52.2889 54.7786 52.552C54.7872 52.569 54.7961 52.5862 54.8056 52.6037C55.7131 54.3066 58.2121 53.2832 57.7289 51.4118C57.6172 50.9798 57.4482 50.4778 57.1976 49.9012C57.1973 49.9011 54.6288 45.5734 53.8962 42.5958Z" fill="#DB8B84"/>
<path d="M56.2561 45.3338C56.2561 45.3338 62.9629 52.6627 62.6273 63.8826C62.6029 64.698 63.3442 65.3239 64.1429 65.1567C64.439 65.0959 64.7033 64.9305 64.8875 64.6908C65.0717 64.4512 65.1635 64.1533 65.1462 63.8515C64.9615 60.6327 63.9654 50.9784 58.6002 44.634L56.2561 45.3338Z" fill="#A0376F"/>
<path d="M49.8033 44.4568C49.9331 44.8043 50.1855 45.0923 50.5129 45.2666C50.8404 45.4409 51.2203 45.4894 51.5811 45.403L57.8566 43.8992C58.7443 43.6863 59.2456 42.7445 58.9263 41.8896L58.8911 41.7953C58.7599 41.444 58.5034 41.1536 58.171 40.9799C57.8386 40.8063 57.4537 40.7617 57.0904 40.8547L50.8497 42.4527C49.9748 42.6768 49.4873 43.6106 49.8033 44.4568ZM56.7176 46.339C56.7176 46.339 66.8427 52.1341 71.2492 76.4282C71.3968 77.2425 72.1649 77.7922 72.981 77.6542C73.1756 77.6218 73.3619 77.5513 73.5292 77.4468C73.6965 77.3423 73.8416 77.2058 73.9562 77.0452C74.0707 76.8846 74.1525 76.703 74.1968 76.5107C74.2411 76.3185 74.2471 76.1194 74.2144 75.9248C73.3275 70.6428 69.6178 52.6483 59.2462 44.9146L56.7176 46.339Z" fill="#C14C82"/>
<path d="M50.7776 47.0659L50.8327 47.2136C51.0903 47.9033 51.8337 48.2806 52.5424 48.0811L58.9303 46.2838C59.7277 46.0595 60.1631 45.2016 59.8733 44.4255C59.7511 44.0982 59.5122 43.8276 59.2025 43.6659C58.8927 43.5042 58.5342 43.4627 58.1957 43.5495L51.7527 45.1992C50.9374 45.4077 50.4831 46.2775 50.7776 47.0659Z" fill="#A0376F"/>
</g>
<defs>
<linearGradient id="paint0_linear_125_1474" x1="60.9736" y1="63.5237" x2="106.227" y2="150.894" gradientUnits="userSpaceOnUse">
<stop offset="0.01" stop-color="#F7BBB6"/>
<stop offset="1" stop-color="#DB8B84"/>
</linearGradient>
<clipPath id="clip0_125_1474">
<rect width="99.6512" height="99.6512" fill="white" transform="translate(0 34.8625) rotate(-20.4779)"/>
</clipPath>
</defs>
</svg>
