<svg width="176" height="176" viewBox="0 0 176 176" fill="none" xmlns="http://www.w3.org/2000/svg">
<g clip-path="url(#clip0_125_2392)">
<path d="M108.814 56.6099L113.375 59.7166L133.831 29.6831L129.27 26.5761L124.709 23.4697L104.253 53.5035L108.814 56.6099Z" fill="#B75798"/>
<path d="M122.707 25.3384L125.81 31.6584L132.826 32.2307C133.224 32.2631 133.623 32.1895 133.983 32.0176C134.343 31.8457 134.65 31.5815 134.875 31.2519L137.954 26.7311C138.244 26.3049 138.353 25.7808 138.257 25.2742C138.161 24.7675 137.868 24.3198 137.441 24.0295L133.045 21.0347L128.648 18.0402C128.222 17.7499 127.698 17.6409 127.191 17.737C126.685 17.8331 126.237 18.1265 125.947 18.5527L122.868 23.0732C122.643 23.4029 122.51 23.7862 122.482 24.1841C122.453 24.582 122.531 24.9803 122.707 25.3384Z" fill="#FFD9BE"/>
<path d="M113.376 59.7167L116.85 54.6168L107.727 48.404L104.254 53.5036L108.815 56.61L113.376 59.7167ZM113.27 40.2642L122.392 46.4768L120.781 48.842L111.659 42.6286L113.27 40.2642ZM118.814 32.1266L127.936 38.3391L126.325 40.704L117.203 34.4912L118.814 32.1266Z" fill="#7F2467"/>
<path d="M135.599 22.7749L133.045 21.0349L128.648 18.0404C128.222 17.7501 127.698 17.641 127.191 17.7371C126.685 17.8332 126.237 18.1267 125.947 18.5529L122.868 23.0734C122.643 23.4031 122.51 23.7863 122.482 24.1842C122.454 24.582 122.532 24.9802 122.707 25.3382L125.81 31.6582L129.646 26.0259C129.645 26.0259 131.596 22.7536 135.599 22.7749Z" fill="#FFBF76"/>
<path d="M41.1321 158.913L48.5256 156.939C50.0209 156.54 51.3228 155.617 52.194 154.338L114.355 63.0712L107.564 58.4463L100.774 53.8212L38.6122 145.087C37.7411 146.367 37.3587 147.916 37.5348 149.454L38.4057 157.056C38.5571 158.378 39.8473 159.256 41.1321 158.913Z" fill="url(#paint0_linear_125_2392)"/>
<path d="M97.4341 87.9155L114.355 63.0713L107.564 58.4464L81.1709 97.1976C87.4844 91.9108 93.4644 89.2324 97.4341 87.9155ZM59.6074 128.212C59.5015 128.575 59.4001 128.939 59.3033 129.304L81.1709 97.1976C77.1358 100.576 72.9661 105.013 69.0964 110.861L65.165 116.633C62.7416 120.192 60.8172 124.08 59.6074 128.212ZM41.1321 158.913L48.5256 156.939C50.0208 156.54 51.3228 155.617 52.1939 154.337L58.5222 145.046C57.4256 139.243 58.1331 133.727 59.3036 129.304L39.344 158.609C39.6024 158.786 39.896 158.905 40.2047 158.957C40.5134 159.009 40.8297 158.994 41.1321 158.913Z" fill="#C7DAFF"/>
<path d="M38.6122 145.087C38.0487 145.915 37.714 146.859 37.5785 147.836C38.85 147.575 40.5113 147.085 42.5182 146.177C47.6576 143.852 51.9866 140.046 55.1621 135.383L107.564 58.4466L100.773 53.8215L38.6122 145.087Z" fill="url(#paint1_linear_125_2392)"/>
<path d="M80.0325 40.3488C79.776 41.6108 79.4144 44.4505 80.3859 47.75C80.6388 48.6085 81.6559 48.9428 82.3631 48.3939C83.7563 47.3125 86.0706 46.1134 88.3126 47.6404L101.892 56.7524L103.919 63.7982L111.218 63.1045L124.67 72.4035C126.912 73.9305 126.644 76.5228 126.148 78.2153C125.896 79.0744 126.579 79.8987 127.471 79.8196C130.897 79.5153 133.407 78.1389 134.488 77.4384C134.864 77.194 135.152 76.8311 135.288 76.403C136.446 72.7558 135.977 69.2519 135.418 67.0336C135.204 66.1873 134.107 65.9559 133.561 66.6373C131.737 68.917 129.173 68.3247 129.173 68.3247L109.816 55.1407L90.4591 41.9567C90.4591 41.9567 88.9687 39.7873 90.4222 37.2555C90.8565 36.4986 90.2393 35.5621 89.3736 35.6733C87.1047 35.9644 83.6721 36.8115 80.7028 39.2251C80.3543 39.508 80.122 39.909 80.0325 40.3488Z" fill="#FFD9BE"/>
<path d="M90.4582 41.9563C90.4582 41.9563 88.9679 39.7869 90.4214 37.2551C90.8557 36.4982 90.2385 35.5617 89.3728 35.6729C87.1039 35.964 83.6713 36.8111 80.702 39.2247C80.3535 39.5081 80.1212 39.9088 80.032 40.3486C79.7755 41.6106 79.4139 44.4503 80.3855 47.7498C80.6384 48.6084 81.6554 48.9426 82.3627 48.3937C83.7558 47.3123 86.0702 46.1132 88.3121 47.6402L101.891 56.7523L103.919 63.798L109.816 55.1404L90.4582 41.9563Z" fill="#FFBF76"/>
<path d="M121.428 63.0497L116.606 59.7653L113.329 64.5766L118.132 67.8894L121.428 63.0497ZM127.461 67.1586L124.667 65.2554L121.359 70.1119L124.14 72.0343L127.461 67.1586Z" fill="#FFFCFF"/>
</g>
<defs>
<linearGradient id="paint0_linear_125_2392" x1="43.057" y1="153.159" x2="120.556" y2="39.3779" gradientUnits="userSpaceOnUse">
<stop stop-color="white"/>
<stop offset="1" stop-color="#C7DAFF"/>
</linearGradient>
<linearGradient id="paint1_linear_125_2392" x1="100.495" y1="61.5314" x2="40.002" y2="150.345" gradientUnits="userSpaceOnUse">
<stop stop-color="#819FEA"/>
<stop offset="1" stop-color="#A7C1FC"/>
</linearGradient>
<clipPath id="clip0_125_2392">
<rect width="150" height="150" fill="white" transform="translate(175.328 147.372) rotate(169.259)"/>
</clipPath>
</defs>
</svg>
